<svg width="40" height="34" viewBox="0 0 40 34" fill="none" xmlns="http://www.w3.org/2000/svg">
  <path d="M1.37009 13.5328C-0.577158 8.66676 3.36109 3.85401 7.78109 1.81676C10.0096 0.789759 12.5528 0.223008 15.0143 0.506008C17.4803 0.789758 19.2683 2.34951 21.0853 3.82101C22.2158 4.73651 23.4713 5.49126 24.8466 6.02101C26.6951 6.73326 28.6928 7.30976 29.8716 8.95626C31.0716 10.6335 31.4028 12.773 31.1981 14.7768C30.7633 19.0293 28.3198 22.9138 25.0106 25.5453C22.7441 27.3475 20.0568 28.4645 17.1876 28.8358C14.3183 29.207 11.4426 29.306 9.26434 27.1633C7.83034 25.7525 7.04384 23.659 7.22209 21.681C7.29709 20.8485 7.61709 19.8718 7.46809 19.038C7.22459 17.6765 5.93784 17.063 4.70759 16.7295C3.07759 16.2885 1.96284 15.0138 1.37009 13.5328Z" fill="#511884"/>
  <path d="M21.3199 20.65C21.0561 20.1 20.6511 19.6355 20.2371 19.1942C20.0924 19.0457 19.9556 18.8895 19.8274 18.7265C19.8328 18.7257 19.838 18.724 19.8429 18.7215C20.3056 18.4855 20.6789 18.1054 20.9064 17.6385C21.1584 17.1165 21.2086 16.5287 21.2029 15.9567C21.1999 15.6642 21.1844 15.3717 21.1686 15.0795C21.1526 14.7807 21.1309 14.482 21.0879 14.186C21.0481 13.8917 20.9773 13.6024 20.8769 13.323C20.7887 13.081 20.6629 12.8545 20.5041 12.6517C20.1974 12.2622 19.7609 11.9465 19.2714 11.8392C19.2326 11.8307 19.1934 11.8242 19.1541 11.8185C19.311 11.5387 19.4396 11.2439 19.5379 10.9385C19.5399 10.932 19.5401 10.9252 19.5385 10.9186C19.5369 10.9121 19.5336 10.9061 19.5289 10.9012L19.5431 10.8937C19.9256 10.685 20.1761 10.314 20.2814 9.89574C20.3946 9.44574 20.3564 8.94848 20.2064 8.51073C20.1344 8.29323 20.0233 8.09073 19.8784 7.91324C19.7541 7.76282 19.5929 7.64714 19.4106 7.57748C19.3884 7.56873 19.3659 7.56073 19.3431 7.55248C19.3515 7.54814 19.358 7.54076 19.3611 7.53184C19.3643 7.52293 19.3639 7.51315 19.3601 7.50448C18.9812 6.64389 18.3601 5.91207 17.5727 5.39815C16.7852 4.88422 15.8652 4.61039 14.9249 4.60999C12.4926 4.60999 10.4749 6.41199 10.1319 8.75074C9.87715 8.77574 9.6274 8.87698 9.44265 9.05623C9.23365 9.25873 9.1539 9.54473 9.1289 9.82748C9.1019 10.1365 9.1469 10.4525 9.23415 10.7482C9.2713 10.883 9.33125 11.0104 9.4114 11.125C9.4924 11.237 9.6184 11.3035 9.7309 11.3835C9.85885 11.4775 10.0029 11.5475 10.1559 11.59C10.3104 11.6317 10.4424 11.6107 10.6016 11.6122C10.8751 12.1415 11.2659 12.6872 11.7231 13.0895L11.5719 13.1017C11.3546 13.1195 11.1532 13.2228 11.0119 13.3889C10.8706 13.555 10.801 13.7704 10.8184 13.9877L10.8934 14.918C10.8864 14.9168 10.8793 14.9173 10.8726 14.9195C10.8659 14.9217 10.8598 14.9254 10.8549 14.9305C10.5777 15.1988 10.3868 15.5436 10.3066 15.921C10.2249 16.3002 10.2524 16.708 10.4139 17.063C10.4933 17.2442 10.6175 17.4021 10.7749 17.522C10.8767 17.5972 10.9937 17.6494 11.1176 17.675V17.677L11.2124 18.846C11.229 19.0517 11.3224 19.2437 11.4741 19.3838C11.6257 19.5238 11.8245 19.6017 12.0309 19.602C12.0534 19.602 12.0759 19.602 12.0986 19.5992L13.4104 19.493C13.4096 19.496 13.4091 19.4991 13.4089 19.5022C13.3757 20.1056 13.5169 20.7057 13.8156 21.2309C14.1144 21.7561 14.5581 22.1842 15.0936 22.464C15.2601 22.5532 15.4352 22.625 15.6164 22.6782C15.6524 22.6885 15.7561 22.7072 15.7926 22.7142C15.6969 23.01 15.7521 23.3467 16.0099 23.5195C16.2934 23.7097 16.6891 23.6525 16.9539 23.4565C17.2424 23.2425 17.3916 22.8915 17.4376 22.5437C17.4819 22.2105 17.3876 21.9037 17.2609 21.5937C17.1341 21.2837 16.9094 21.038 16.6436 20.8295C16.5061 20.7217 16.3331 20.5632 16.2869 20.3795C16.2656 20.296 16.3386 20.2062 16.4006 20.1475C16.4671 20.0847 16.5571 20.0575 16.6449 20.04C16.7387 20.0212 16.8337 20.0085 16.9291 20.002C17.0196 19.9927 17.111 20.0029 17.1971 20.032C17.3659 20.096 17.4489 20.2772 17.5414 20.4187C17.7016 20.6629 17.885 20.8911 18.0891 21.1C18.0926 21.1067 18.098 21.1123 18.1046 21.116C18.1699 21.182 18.2371 21.2465 18.3061 21.3085C18.5997 21.5725 18.9261 21.7975 19.2771 21.978C19.3626 22.0217 19.4491 22.0655 19.5384 22.101C19.5802 22.1174 19.6235 22.1298 19.6676 22.138C19.6646 22.141 19.7426 22.1545 19.7396 22.1582C19.6376 22.3832 19.6381 22.6415 19.7646 22.8502C19.9004 23.0725 20.0866 23.198 20.3419 23.2272C20.6013 23.2538 20.8609 23.1794 21.0669 23.0195C21.2775 22.8556 21.4342 22.6324 21.5169 22.3787C21.7099 21.8102 21.5721 21.1762 21.3199 20.65Z" fill="white"/>
  <path d="M20.0439 23.077L20.0614 23.0867C20.0557 23.0835 20.0499 23.0805 20.0439 23.077Z" fill="white"/>
  <path d="M39.5168 30.6693C39.4958 30.503 39.4506 30.337 39.3561 30.1967C39.1838 29.9415 38.8963 29.8077 38.6186 29.6992C38.3408 29.5907 38.0381 29.5045 37.7936 29.3242C37.6436 29.2122 37.5141 29.0528 37.4721 28.8668C37.4348 28.7018 37.4703 28.5155 37.5471 28.3668C37.6238 28.218 37.7493 28.0948 37.9161 28.0638C37.9985 28.0483 38.0837 28.057 38.1613 28.0888C38.2 28.1057 38.2342 28.1314 38.2613 28.1638C38.2893 28.1977 38.3245 28.225 38.3643 28.2437C38.5488 28.3237 38.7823 28.2498 38.9261 28.1228C39.0761 27.985 39.1566 27.7915 39.2011 27.5962C39.2456 27.401 39.2688 27.1908 39.2456 26.9908C39.2223 26.7908 39.1456 26.5977 38.9851 26.4712C38.8246 26.3447 38.6161 26.2963 38.4156 26.3108C38.1841 26.3285 37.9673 26.424 37.7698 26.5415C37.5959 26.6453 37.432 26.7652 37.2803 26.8995C36.9796 27.1657 36.7286 27.4832 36.5391 27.8372C36.4936 27.9226 36.4514 28.0101 36.4126 28.0997C36.4198 27.9095 36.4046 27.719 36.3673 27.5323C36.3308 27.3573 36.2708 27.1842 36.1673 27.0367C36.0761 26.9052 35.9511 26.792 35.7941 26.748C35.6191 26.698 35.4293 26.75 35.2833 26.8543C35.1281 26.9653 35.0211 27.1292 34.9421 27.2997C34.8612 27.4786 34.7976 27.6648 34.7521 27.8557C34.6566 28.2445 34.6218 28.6447 34.5893 29.0425C34.5731 29.244 34.5573 29.4457 34.5353 29.6467C34.5243 29.7467 34.5103 29.8468 34.4961 29.9448C34.4816 30.039 34.4693 30.1405 34.4188 30.2235C34.3808 30.2857 34.3086 30.342 34.2318 30.3235C34.1551 30.305 34.1048 30.237 34.0818 30.1675C34.0496 30.069 34.0568 29.9623 34.0596 29.8603L34.0663 29.525L34.0941 28.1902C34.1018 27.8085 34.1376 27.3722 33.8816 27.0555C33.7783 26.928 33.6316 26.8305 33.4661 26.811C33.2941 26.7907 33.1298 26.868 33.0103 26.988C32.8781 27.121 32.8061 27.2988 32.7646 27.4788C32.7183 27.6788 32.6976 27.8877 32.6741 28.0922C32.6581 28.2297 32.6448 28.3672 32.6333 28.505C32.5972 28.1772 32.5453 27.8517 32.4778 27.5285C32.4278 27.2855 32.369 27.0444 32.3013 26.8052C32.2408 26.5892 32.1806 26.362 32.0473 26.1775C31.9268 26.011 31.7403 25.8813 31.5296 25.875C31.3318 25.8688 31.1583 25.9843 31.0471 26.1408C30.9181 26.3228 30.8896 26.5493 30.9093 26.7658C30.9323 27.0188 30.9996 27.2685 31.0528 27.5157L31.2156 28.2755C31.2426 28.4013 31.2695 28.5269 31.2963 28.6522C31.323 28.7662 31.3438 28.8814 31.3586 28.9975C31.3734 29.113 31.372 29.2301 31.3543 29.3453C31.3491 29.376 31.3483 29.4217 31.3133 29.4335C31.3019 29.4374 31.2894 29.4368 31.2784 29.4316C31.2675 29.4264 31.259 29.4171 31.2548 29.4057C31.1993 29.2962 31.1528 29.1807 31.1028 29.0687C31.0528 28.9567 31.0028 28.841 30.9528 28.7272C30.7511 28.269 30.5528 27.8097 30.3421 27.3555C30.1833 27.0122 30.0033 26.6327 29.6471 26.4555C29.4718 26.3702 29.2743 26.3417 29.0821 26.3739C28.8899 26.4061 28.7125 26.4975 28.5746 26.6353C28.2593 26.957 28.2963 27.4257 28.3043 27.8405C28.3143 28.3555 28.3228 28.8708 28.3076 29.3858C28.3001 29.6408 28.2868 29.8957 28.2653 30.15C28.2538 30.2842 28.2371 30.4182 28.2221 30.5522C28.2221 30.5362 28.2206 30.5203 28.2193 30.5043C28.2001 30.2125 28.1731 29.9212 28.1358 29.6312C28.0639 29.0571 27.946 28.4897 27.7833 27.9345C27.7423 27.7965 27.6984 27.6593 27.6516 27.523C27.5233 27.1508 27.3766 26.7415 27.0676 26.4785C26.9032 26.335 26.6942 26.2527 26.4761 26.2456C26.258 26.2386 26.0441 26.3071 25.8708 26.4397C25.6887 26.5737 25.5446 26.7528 25.4528 26.9595C25.3371 27.2185 25.2946 27.5037 25.2778 27.7845C25.2423 28.3932 25.3061 29.0047 25.4028 29.605C25.4098 29.6482 25.4173 29.6912 25.4246 29.7342C25.2411 29.3827 24.9716 29.0817 24.6141 28.8865C24.5155 28.8327 24.4119 28.7886 24.3048 28.7547C24.2521 28.7382 24.1923 28.7328 24.1416 28.713C24.1081 28.7 24.1068 28.6675 24.1328 28.6448C24.8283 28.1145 25.3898 27.3218 25.4496 26.4285C25.4773 26.0118 25.3978 25.5785 25.1893 25.215C24.9771 24.8432 24.6318 24.5768 24.2333 24.4293C23.7943 24.2668 23.3193 24.2543 22.8606 24.3233C22.5974 24.3644 22.3373 24.4229 22.0818 24.4983C22.0188 24.5163 21.9561 24.5348 21.8936 24.5538C21.839 24.5668 21.7871 24.589 21.7398 24.6193C21.6589 24.677 21.6037 24.764 21.5858 24.8617C21.5648 24.9797 21.5608 25.1033 21.5516 25.2228C21.5404 25.3544 21.5302 25.4862 21.5211 25.6182C21.5023 25.8825 21.4871 26.147 21.4738 26.4117C21.4488 26.9345 21.4306 27.4577 21.4138 27.9807C21.383 28.9474 21.3523 29.9148 21.3218 30.8828L21.2798 32.2045C21.2727 32.4343 21.2653 32.664 21.2578 32.8935L21.2526 33.057C21.2464 33.1822 21.2861 33.3053 21.3643 33.4032C21.5076 33.5782 21.7476 33.5895 21.9571 33.6095C22.2089 33.6303 22.4617 33.6367 22.7143 33.6288C23.2191 33.6193 23.7341 33.5713 24.2013 33.3665C25.0211 33.0075 25.5858 32.204 25.6986 31.3233C25.7098 31.2358 25.7166 31.1468 25.7193 31.0573C25.7403 31.1239 25.763 31.1893 25.7873 31.2535C25.9623 31.7222 26.2373 32.1855 26.6888 32.434C26.8976 32.549 27.1403 32.6055 27.3756 32.548C27.5796 32.498 27.7636 32.367 27.8928 32.2032C28.0953 31.947 28.1803 31.6227 28.2138 31.3C28.2621 31.5722 28.3853 31.827 28.6316 31.9785C28.7233 32.0372 28.8282 32.0721 28.9368 32.0801C29.0454 32.0881 29.1543 32.0689 29.2536 32.0242C29.4118 31.9492 29.5176 31.8035 29.5831 31.646C29.6623 31.456 29.6971 31.2477 29.7263 31.046C29.7607 30.7965 29.7812 30.5453 29.7876 30.2935C29.7911 30.1728 29.7927 30.0521 29.7926 29.9312C29.7926 29.8717 29.7926 29.8125 29.7926 29.753C29.7926 29.743 29.7926 29.733 29.7926 29.723C29.9901 30.1438 30.1901 30.5635 30.3873 30.9845C30.5723 31.3787 30.7493 31.8505 31.1716 32.0485C31.3566 32.1352 31.5678 32.1478 31.7618 32.0837C31.9539 32.0191 32.1238 31.9016 32.2521 31.7448C32.5421 31.393 32.6033 30.9147 32.6486 30.477C32.6486 30.466 32.6503 30.4553 32.6516 30.4445C32.6578 30.5018 32.6648 30.5587 32.6723 30.616C32.7261 31.02 32.8031 31.4272 32.9293 31.816C32.9823 31.9787 33.0506 32.1395 33.1573 32.2745C33.2625 32.4108 33.4116 32.5066 33.5793 32.5455C33.9481 32.6275 34.3058 32.4535 34.5761 32.2138C34.6443 32.1528 34.7093 32.0885 34.7711 32.021C34.8021 31.9872 34.8308 31.949 34.8641 31.9175C34.8741 31.9076 34.8875 31.9021 34.9016 31.9021C34.9156 31.9021 34.9291 31.9076 34.9391 31.9175C35.0693 32.0485 35.1933 32.1925 35.3503 32.2925C35.5 32.3851 35.6746 32.4294 35.8503 32.4195C35.9357 32.4163 36.0196 32.396 36.0969 32.3596C36.1743 32.3232 36.2435 32.2715 36.3003 32.2078C36.3126 32.1935 36.3236 32.1788 36.3343 32.1638C36.4552 32.4583 36.6721 32.7033 36.9498 32.859C37.2936 33.0535 37.7021 33.0822 38.0786 32.974C38.4647 32.8603 38.8035 32.6245 39.0443 32.302C39.2733 31.9889 39.4268 31.6272 39.4928 31.245C39.5297 31.0554 39.5378 30.8613 39.5168 30.6693V30.6693ZM36.6233 30.2545C36.9796 30.535 37.4483 30.5772 37.8341 30.8027C38.0091 30.9055 38.1661 31.056 38.2341 31.2513C38.2685 31.3408 38.2771 31.4383 38.2591 31.5325C38.2387 31.6201 38.1933 31.6998 38.1283 31.762C38.0093 31.877 37.8393 31.91 37.6971 31.8185C37.5806 31.7435 37.5098 31.6112 37.4441 31.4935C37.3726 31.3655 37.3033 31.2307 37.1968 31.1277C37.1361 31.0673 37.0604 31.024 36.9775 31.0023C36.8946 30.9805 36.8074 30.9811 36.7248 31.004C36.5987 31.0377 36.4879 31.1137 36.4111 31.2193C36.3566 31.0325 36.2826 30.849 36.2318 30.663C36.1318 30.2958 36.1498 29.913 36.2036 29.5402C36.2628 29.8172 36.3956 30.075 36.6233 30.2545Z" fill="black"/>
  <path d="M18.3652 27.3955C17.9722 27.2595 17.5444 27.159 17.1279 27.2313C16.9286 27.2651 16.7402 27.3456 16.5779 27.4663C16.4253 27.5833 16.2994 27.7317 16.2089 27.9015C15.9939 28.2985 15.9384 28.7648 15.8839 29.2063C15.8262 29.639 15.8024 30.0756 15.8127 30.512C15.8052 30.5023 15.7974 30.4928 15.7877 30.4835C15.6974 30.3835 15.5549 30.31 15.4187 30.3203C15.3316 30.3298 15.2473 30.3567 15.1707 30.3993C15.1027 30.434 15.0384 30.4763 14.9654 30.4993C14.8404 30.54 14.6714 30.5535 14.5787 30.4418C14.5054 30.3538 14.5202 30.2168 14.5287 30.1105C14.5337 30.0475 14.5402 29.9855 14.5467 29.9213C14.5907 29.495 14.6442 29.069 14.7124 28.6463C14.7376 28.4686 14.7726 28.2925 14.8174 28.1188C14.8244 28.0938 14.8319 28.0688 14.8412 28.0438L14.8467 28.03C14.8473 28.0285 14.848 28.0271 14.8489 28.0258C14.8513 28.0213 14.8539 28.0169 14.8567 28.0128C14.859 28.0093 14.8617 28.0062 14.8647 28.0033C14.8685 28.0001 14.8727 27.9975 14.8772 27.9955C14.8861 27.9928 14.8955 27.992 14.9047 27.9933C14.9338 27.9972 14.9622 28.0056 14.9887 28.0183C15.0492 28.0433 15.1069 28.0765 15.1732 28.084C15.3387 28.1028 15.5092 28.0435 15.6394 27.9433C16.0749 27.5975 16.0879 26.895 15.8237 26.4433C15.6637 26.1683 15.3704 25.9683 15.0487 25.955C14.7694 25.9435 14.5099 26.075 14.3237 26.2763C14.1374 26.4775 14.0127 26.7298 13.9154 26.984C13.7914 27.3167 13.6905 27.6576 13.6137 28.0043C13.5505 28.2765 13.5017 28.5519 13.4677 28.8293C13.3941 28.3395 13.2709 27.8585 13.0999 27.3938C12.9862 27.0895 12.8364 26.787 12.5954 26.5628C12.3737 26.3565 12.0769 26.2148 11.7687 26.241C11.4734 26.266 11.2067 26.4268 11.0092 26.641C10.7887 26.8815 10.6592 27.1873 10.5694 27.4975C10.5219 27.6623 10.4849 27.8298 10.4487 27.9975C10.4374 28.0492 10.4263 28.1009 10.4154 28.1528C10.408 28.0128 10.3929 27.8734 10.3704 27.735C10.3287 27.478 10.2437 27.2288 10.0829 27.021C9.78644 26.6378 9.25369 26.488 8.78694 26.496C8.55233 26.4971 8.32054 26.5473 8.10644 26.6433C7.88033 26.7523 7.68199 26.9114 7.52644 27.1085C7.16544 27.5533 7.02869 28.1235 6.97244 28.6835C6.93589 29.074 6.92278 29.4664 6.93319 29.8585C6.90926 29.7985 6.88006 29.7407 6.84595 29.6858C6.6282 29.3358 6.24894 29.1445 5.88319 28.9858C5.50944 28.8243 5.10519 28.6938 4.78319 28.4358C4.58094 28.2745 4.41169 28.0495 4.36294 27.7915C4.31944 27.562 4.37719 27.3075 4.49044 27.1058C4.60369 26.904 4.78319 26.7418 5.01544 26.7058C5.13214 26.688 5.25147 26.7049 5.35869 26.7543C5.41171 26.7804 5.45812 26.8181 5.49444 26.8648C5.52958 26.9109 5.57471 26.9485 5.62644 26.9748C5.86519 27.0873 6.17644 26.9998 6.37019 26.84C6.57744 26.663 6.69369 26.4083 6.76144 26.1493C6.82919 25.8903 6.87169 25.6073 6.84969 25.3375C6.82844 25.0728 6.73519 24.8108 6.52719 24.6355C6.31919 24.4603 6.04419 24.3855 5.77719 24.3968C5.46644 24.4095 5.17169 24.528 4.90219 24.6755C4.66344 24.8068 4.43745 24.9602 4.22719 25.1335C3.80924 25.4779 3.45583 25.8939 3.18344 26.362C2.89444 26.8585 2.68494 27.4223 2.62794 27.9963C2.57019 28.5795 2.71519 29.2183 3.17919 29.6108C3.64319 30.0033 4.27919 30.0858 4.78569 30.407C5.02144 30.557 5.22869 30.7713 5.31369 31.0428C5.39294 31.296 5.34094 31.564 5.13869 31.745C4.96719 31.8995 4.72644 31.9375 4.53219 31.8025C4.37544 31.6935 4.28444 31.51 4.19969 31.345C4.10994 31.17 4.02469 30.9858 3.88569 30.8425C3.80858 30.7601 3.71104 30.6997 3.60297 30.6672C3.49491 30.6348 3.38018 30.6315 3.27044 30.6578C2.70319 30.7908 2.54069 31.4608 2.64069 31.963C2.73819 32.4543 3.07069 32.8843 3.49344 33.1438C3.94469 33.4205 4.49044 33.4783 5.00019 33.3513C5.52303 33.2182 5.98881 32.9196 6.32794 32.5C6.65169 32.0978 6.87469 31.6 6.98269 31.097C6.98644 31.0795 6.98969 31.062 6.99319 31.0443C7.00494 31.2193 7.01819 31.3963 7.03594 31.5715C7.06444 31.8525 7.11644 32.1373 7.25919 32.3848C7.38194 32.5975 7.57094 32.7823 7.81069 32.853C8.04169 32.9215 8.32145 32.8885 8.49595 32.7103C8.6647 32.538 8.69195 32.2828 8.69595 32.0533C8.70195 31.7383 8.69844 31.4225 8.69944 31.1075L8.70094 30.636C8.70122 30.6328 8.70122 30.6295 8.70094 30.6263C9.14169 30.4583 9.60519 30.2715 9.93294 29.9203C10.0149 29.8317 10.0858 29.7336 10.1442 29.628C10.1424 29.641 10.1404 29.653 10.1387 29.6665C10.0857 30.0394 10.0549 30.415 10.0464 30.7915C10.0432 30.9745 10.0447 31.1588 10.0584 31.3415C10.0714 31.5118 10.0994 31.6843 10.1769 31.838C10.2405 31.9705 10.3441 32.0797 10.4732 32.15C10.6006 32.2144 10.7482 32.2261 10.8842 32.1825C11.0246 32.1361 11.148 32.0491 11.2389 31.9325C11.3361 31.8038 11.4008 31.6536 11.4274 31.4945C11.4944 31.1445 11.4297 30.788 11.4604 30.435C11.4669 30.358 11.4807 30.2823 11.4927 30.2063C11.5019 30.143 11.5143 30.0802 11.5299 30.0183C11.5632 29.8955 11.6222 29.7835 11.7472 29.7355C11.8007 29.7131 11.8608 29.7124 11.9147 29.7338C11.9712 29.7618 12.0168 29.8079 12.0442 29.8648C12.0796 29.9399 12.0995 30.0213 12.1027 30.1043C12.1097 30.196 12.1119 30.2883 12.1159 30.3793L12.1409 30.9573C12.1487 31.1243 12.1517 31.292 12.1684 31.4573C12.1787 31.6028 12.2125 31.7457 12.2684 31.8805C12.3278 32.0172 12.4306 32.1305 12.5609 32.2028C12.6934 32.2754 12.8473 32.2988 12.9954 32.2688C13.1435 32.2388 13.2761 32.1574 13.3699 32.039C13.4734 31.9105 13.5144 31.749 13.5339 31.589C13.5552 31.416 13.5612 31.239 13.5689 31.0658C13.5689 31.0408 13.5707 31.0158 13.5717 30.9928C13.6058 31.1268 13.6484 31.2586 13.6992 31.3873C13.8262 31.7053 14.0289 32.0013 14.3317 32.1735C14.6127 32.3335 14.9567 32.3763 15.2509 32.225C15.5319 32.0805 15.7182 31.8 15.8337 31.5135C15.858 31.4532 15.8787 31.3915 15.8959 31.3288C15.9322 31.5238 15.9823 31.7159 16.0459 31.9038C16.1782 32.2893 16.3779 32.6688 16.7192 32.908C17.0442 33.1353 17.4577 33.2168 17.8459 33.1538C18.1897 33.0992 18.5124 32.9529 18.7799 32.7303C18.9081 32.6243 19.0115 32.4915 19.0827 32.3413C19.1454 32.2001 19.1642 32.0433 19.1369 31.8913C19.1123 31.7444 19.0415 31.6091 18.9347 31.5053C18.8207 31.3984 18.6697 31.34 18.5134 31.3423C18.2942 31.3448 18.0779 31.408 17.8727 31.4803C17.7372 31.528 17.5447 31.5985 17.4287 31.4743C17.3689 31.41 17.3387 31.317 17.3169 31.2338C17.2929 31.1402 17.2799 31.0441 17.2782 30.9475C17.2752 30.8088 17.2822 30.6325 17.3814 30.5245C17.4564 30.4423 17.5694 30.4165 17.6792 30.4093C17.8107 30.4008 17.9422 30.413 18.0737 30.414C18.2002 30.414 18.3309 30.4065 18.4462 30.3488C18.7149 30.2135 18.8134 29.8755 18.7687 29.5955C18.7464 29.456 18.6829 29.316 18.5754 29.2218C18.4414 29.1043 18.2637 29.0575 18.0919 29.0288C17.9292 29.0018 17.7644 28.981 17.6007 28.9598C17.5289 28.9505 17.4507 28.9403 17.3864 28.9033C17.3222 28.8663 17.2899 28.7878 17.3434 28.7265C17.3849 28.6788 17.4589 28.6688 17.5184 28.6665C17.5983 28.6653 17.678 28.6715 17.7567 28.6853C17.8952 28.706 18.0317 28.7253 18.1694 28.7573C18.3274 28.7948 18.4854 28.8368 18.6477 28.8505C18.7952 28.8633 18.9532 28.8488 19.0799 28.7663C19.151 28.7175 19.2112 28.6546 19.2567 28.5814C19.3023 28.5083 19.3322 28.4265 19.3447 28.3413C19.3674 28.1848 19.3109 28.0348 19.2177 27.911C19.0142 27.637 18.6779 27.5038 18.3652 27.3955Z" fill="black"/>
  <path d="M15.7318 22.755C15.6273 23.055 15.7515 23.4135 16.0148 23.5903C16.3003 23.7818 16.6993 23.7243 16.9648 23.5265C17.2555 23.311 17.406 22.9573 17.4525 22.607C17.4949 22.2691 17.4486 21.9261 17.3183 21.6115C17.1911 21.2951 16.9844 21.0168 16.7183 20.8035C16.5795 20.6948 16.387 20.6003 16.34 20.4153C16.3299 20.3754 16.331 20.3335 16.343 20.2942C16.355 20.2549 16.3776 20.2196 16.4083 20.1923C16.4753 20.1288 16.5658 20.1015 16.6545 20.084C16.749 20.0649 16.8446 20.0521 16.9408 20.0455C17.0319 20.0363 17.1239 20.0466 17.2108 20.0758C17.3808 20.1403 17.4643 20.3228 17.5578 20.4655C17.9953 21.1315 18.5978 21.6729 19.3065 22.037C19.3925 22.081 19.4798 22.1253 19.5698 22.162C19.6647 22.1985 19.7661 22.2155 19.8678 22.212C20.0592 22.2058 20.2443 22.1418 20.3988 22.0285C20.4712 21.9762 20.5371 21.9153 20.595 21.8473C20.634 21.8015 20.568 21.735 20.5288 21.781C20.4172 21.9159 20.2709 22.0179 20.1058 22.076C20.0104 22.1081 19.9098 22.1222 19.8093 22.1175C19.713 22.111 19.6189 22.0855 19.5325 22.0425C19.1789 21.8791 18.8473 21.6716 18.5458 21.425C18.2458 21.1789 17.9788 20.8951 17.7513 20.5808C17.6956 20.5033 17.6424 20.4241 17.5915 20.3433C17.5471 20.267 17.4964 20.1946 17.44 20.1268C17.3814 20.0594 17.3061 20.0086 17.2218 19.9793C17.1359 19.9531 17.046 19.9431 16.9565 19.9498C16.8619 19.9561 16.7676 19.9677 16.6743 19.9845C16.5805 20.0003 16.4843 20.0235 16.4038 20.0765C16.3303 20.122 16.2757 20.1925 16.25 20.275C16.2295 20.3613 16.2421 20.4521 16.2853 20.5295C16.3713 20.697 16.55 20.7835 16.6893 20.8988C16.8157 21.0035 16.9276 21.1247 17.022 21.259C17.2128 21.5301 17.3312 21.8454 17.366 22.175C17.4003 22.511 17.3475 22.8685 17.171 23.1605C17.0853 23.3063 16.9627 23.4271 16.8155 23.5105C16.6712 23.5901 16.5063 23.6243 16.3423 23.6088C16.1871 23.5937 16.0438 23.5193 15.9423 23.401C15.8463 23.2871 15.7917 23.1441 15.7873 22.9953C15.7852 22.9217 15.7966 22.8484 15.821 22.779C15.8408 22.722 15.7503 22.6973 15.7305 22.754L15.7318 22.755Z" fill="black"/>
  <path d="M13.3941 19.5427C13.3635 20.0623 13.4622 20.5813 13.6813 21.0534C13.9005 21.5255 14.2332 21.9358 14.6499 22.2477C14.7889 22.3527 14.9364 22.4459 15.0909 22.5265C15.2585 22.6165 15.4351 22.6889 15.6176 22.7425C15.8191 22.7992 16.0339 22.8095 16.2311 22.731C16.4026 22.6624 16.5492 22.5433 16.6514 22.3895C16.6851 22.3395 16.6039 22.2922 16.5706 22.3422C16.4848 22.4707 16.3639 22.5718 16.2224 22.6337C16.0561 22.706 15.8741 22.7087 15.6996 22.667C15.5264 22.6226 15.3587 22.5589 15.1996 22.477C15.0448 22.4005 14.8966 22.3113 14.7564 22.2105C14.2202 21.8245 13.8233 21.2754 13.6249 20.6452C13.5129 20.2891 13.4661 19.9156 13.4869 19.5427C13.4904 19.4825 13.3966 19.4825 13.3931 19.5427H13.3941Z" fill="black"/>
  <path d="M19.6924 22.2085C19.5899 22.435 19.6174 22.7013 19.7469 22.9118C19.8837 23.1368 20.1219 23.266 20.3804 23.2958C20.6417 23.3224 20.9032 23.2474 21.1107 23.0865C21.3228 22.9212 21.4807 22.6964 21.5642 22.4408C21.7577 21.8683 21.6189 21.2295 21.3642 20.6993C21.0987 20.145 20.6904 19.6773 20.2732 19.2325C20.0692 19.0153 19.8617 18.7963 19.7092 18.5383C19.5717 18.306 19.4867 18.0303 19.4922 17.759C19.4932 17.6947 19.5008 17.6307 19.5149 17.568C19.5282 17.5093 19.4379 17.484 19.4244 17.543C19.3652 17.805 19.4109 18.0848 19.5067 18.3325C19.6067 18.594 19.7754 18.8195 19.9592 19.029C20.1532 19.2505 20.3617 19.4588 20.5547 19.6815C20.7524 19.9052 20.9318 20.1444 21.0912 20.3968C21.3927 20.8838 21.6027 21.458 21.5514 22.0385C21.5277 22.309 21.4399 22.5775 21.2729 22.794C21.1229 22.99 20.9087 23.1415 20.6642 23.191C20.4264 23.239 20.1584 23.1893 19.9704 23.031C19.8821 22.9562 19.8137 22.8607 19.7714 22.7531C19.729 22.6454 19.714 22.5289 19.7277 22.414C19.7351 22.3594 19.7503 22.3061 19.7729 22.2558C19.7789 22.2449 19.7804 22.2323 19.7772 22.2204C19.7741 22.2084 19.7664 22.1982 19.7559 22.1918C19.7452 22.1856 19.7325 22.1838 19.7205 22.187C19.7085 22.1901 19.6982 22.1978 19.6919 22.2085H19.6924Z" fill="black"/>
  <path d="M10.6024 11.5657C10.4606 11.5686 10.319 11.5556 10.1801 11.527C10.0446 11.495 9.91504 11.4418 9.79611 11.3695C9.57586 11.2372 9.39611 11.0377 9.30886 10.7945C9.21151 10.5188 9.16402 10.2281 9.16861 9.93574C9.17336 9.66549 9.22761 9.376 9.38986 9.15375C9.54511 8.9405 9.79336 8.81975 10.0536 8.80175C10.1134 8.7975 10.1139 8.70375 10.0536 8.708C9.79886 8.72575 9.55361 8.82825 9.38011 9.01849C9.18711 9.22974 9.10661 9.516 9.08211 9.7955C9.05486 10.1067 9.10011 10.4247 9.18811 10.7235C9.22541 10.8594 9.28579 10.9878 9.36661 11.1032C9.44831 11.2155 9.54789 11.3137 9.66136 11.3937C9.79672 11.4901 9.94792 11.5621 10.1081 11.6062C10.2698 11.6455 10.436 11.6635 10.6024 11.66C10.6629 11.66 10.6629 11.5667 10.6024 11.5662V11.5657Z" fill="black"/>
  <path d="M18.195 7.625C18.5401 7.50074 18.9144 7.4822 19.27 7.57175C19.442 7.617 19.6088 7.69475 19.739 7.818C19.8947 7.97062 20.0175 8.15345 20.1 8.35525C20.2709 8.77264 20.3266 9.22825 20.2613 9.6745C20.193 10.0898 19.9918 10.4855 19.6363 10.723C19.3165 10.936 18.9235 11.0063 18.5448 10.9825C18.4961 10.9795 18.4475 10.975 18.399 10.969C18.3866 10.9691 18.3747 10.974 18.3659 10.9828C18.3571 10.9915 18.3521 11.0034 18.352 11.0158C18.3523 11.0281 18.3573 11.0399 18.3661 11.0487C18.3748 11.0575 18.3866 11.0625 18.399 11.0628C18.7975 11.1128 19.2188 11.0628 19.574 10.8695C19.9598 10.659 20.212 10.2853 20.318 9.86375C20.432 9.41 20.3948 8.9095 20.243 8.4685C20.1706 8.24925 20.0585 8.04513 19.9125 7.86625C19.7872 7.7148 19.6249 7.59828 19.4413 7.528C19.0823 7.389 18.6605 7.3935 18.2913 7.49475C18.2498 7.50625 18.2085 7.51975 18.168 7.534C18.1115 7.55425 18.136 7.645 18.193 7.6245L18.195 7.625Z" fill="black"/>
  <path d="M19.2116 11.886C19.6828 11.939 20.0943 12.2193 20.3923 12.5773C20.7345 12.9885 20.9151 13.4993 21.0096 14.0203C21.059 14.3088 21.0917 14.5999 21.1076 14.8923C21.1259 15.1799 21.1396 15.4681 21.1488 15.7568C21.1655 16.317 21.1488 16.8935 20.9488 17.4245C20.7664 17.9074 20.4286 18.316 19.9886 18.586C19.9363 18.618 19.8828 18.6475 19.8283 18.6753C19.7738 18.703 19.8218 18.7835 19.8756 18.7563C20.3416 18.5184 20.7177 18.1354 20.9471 17.665C21.2008 17.14 21.2516 16.5468 21.2471 15.9705C21.2438 15.6758 21.2283 15.381 21.2126 15.0868C21.1966 14.7868 21.1746 14.4848 21.1311 14.1868C21.0513 13.6398 20.8913 13.0933 20.5608 12.6425C20.2751 12.2525 19.8721 11.9295 19.3928 11.8225C19.333 11.8093 19.2725 11.7994 19.2116 11.7928C19.1991 11.7929 19.1872 11.7979 19.1785 11.8067C19.1697 11.8155 19.1647 11.8273 19.1646 11.8398C19.1649 11.8521 19.1699 11.8638 19.1787 11.8725C19.1874 11.8813 19.1992 11.8863 19.2116 11.8865V11.886Z" fill="black"/>
  <path d="M29.8874 29.1357C29.8859 29.1329 29.8835 29.1307 29.8806 29.1294C29.8778 29.1281 29.8745 29.1278 29.8714 29.1285C29.8683 29.1292 29.8655 29.1309 29.8635 29.1333C29.8615 29.1358 29.8603 29.1388 29.8602 29.142C29.8719 29.7387 29.8787 30.3402 29.7577 30.9255C29.6982 31.2135 29.5827 31.5282 29.2557 31.606C29.1197 31.6364 28.9773 31.6188 28.8529 31.556C28.5489 31.406 28.4109 31.089 28.3779 30.7765C28.3529 30.5265 28.3867 30.2765 28.4122 30.0265C28.5064 29.1047 28.4774 28.1765 28.4509 27.2515C28.4417 26.9225 28.4364 26.575 28.6629 26.3042C28.7822 26.1641 28.9424 26.0647 29.1209 26.0202C29.2995 25.9757 29.4876 25.9882 29.6587 26.056C30.0307 26.206 30.2179 26.5767 30.3822 26.9227C30.7017 27.5947 31.0119 28.3175 31.3299 28.9977C31.3385 29.0153 31.3523 29.0298 31.3694 29.0393C31.3865 29.0488 31.4061 29.0527 31.4256 29.0506C31.445 29.0485 31.4633 29.0404 31.478 29.0275C31.4927 29.0146 31.5031 28.9975 31.5077 28.9785C31.5577 28.7622 31.5234 28.514 31.4757 28.2997L31.1222 26.7192C31.0682 26.4775 31.0142 26.227 31.0672 25.985C31.1202 25.743 31.3117 25.51 31.5654 25.488C31.7639 25.4702 31.9557 25.5847 32.0767 25.738C32.1977 25.8912 32.2607 26.0805 32.3164 26.2662C32.7002 27.5445 32.8587 28.894 32.7049 30.2182C32.6654 30.5592 32.6009 30.9092 32.4067 31.196C32.2124 31.4827 31.8582 31.6925 31.5112 31.6287C31.2967 31.5892 31.1112 31.4517 30.9759 31.2857C30.8407 31.1197 30.7469 30.9252 30.6552 30.7327C30.4017 30.1982 30.1422 29.6692 29.8874 29.1357Z" fill="#24FFAB"/>
  <path d="M29.9281 29.1122C29.8976 29.0717 29.8303 29.0695 29.8158 29.1265C29.8121 29.1557 29.8121 29.1853 29.8158 29.2145C29.8158 29.2467 29.8171 29.279 29.8176 29.3115C29.8196 29.4325 29.8208 29.5537 29.8203 29.675C29.8203 29.9227 29.8116 30.171 29.7876 30.4177C29.7663 30.6352 29.7376 30.857 29.6761 31.0677C29.6316 31.2197 29.5618 31.3765 29.4321 31.4747C29.2701 31.597 29.0473 31.6022 28.8693 31.512C28.7075 31.4263 28.581 31.2862 28.5123 31.1165C28.4316 30.9282 28.4123 30.7215 28.4188 30.5187C28.4266 30.2657 28.4653 30.014 28.4851 29.7617C28.5241 29.259 28.5303 28.7545 28.5238 28.2505C28.5206 28.0005 28.5141 27.7482 28.5071 27.497C28.5011 27.2797 28.4848 27.0595 28.5071 26.8427C28.5266 26.6427 28.5911 26.4495 28.7296 26.3015C28.8576 26.1665 29.0267 26.0777 29.2106 26.049C29.394 26.0202 29.5819 26.0545 29.7433 26.1462C29.9053 26.2385 30.0291 26.3815 30.1281 26.537C30.2341 26.7035 30.3163 26.884 30.4001 27.062C30.5036 27.2822 30.6046 27.5037 30.7048 27.7257C30.8051 27.9477 30.9066 28.1757 31.0078 28.399C31.0592 28.5125 31.1106 28.6258 31.1621 28.739L31.2371 28.902C31.2596 28.9502 31.2773 29.0105 31.3121 29.052C31.325 29.0659 31.3406 29.0771 31.358 29.085C31.3753 29.0929 31.394 29.0973 31.413 29.0979C31.4321 29.0985 31.451 29.0954 31.4688 29.0887C31.4867 29.082 31.503 29.0718 31.5168 29.0587C31.5516 29.025 31.5593 28.978 31.5668 28.9322C31.5758 28.8766 31.5808 28.8204 31.5816 28.764C31.5851 28.5237 31.5233 28.289 31.4713 28.0567L31.3056 27.3152C31.2506 27.0695 31.1926 26.8242 31.1413 26.5777C31.0953 26.356 31.0613 26.1142 31.1451 25.8967C31.2076 25.7342 31.3408 25.5862 31.5143 25.5445C31.7071 25.4982 31.9003 25.603 32.0243 25.746C32.1698 25.914 32.2323 26.139 32.2936 26.3477C32.4301 26.8114 32.5353 27.2837 32.6083 27.7615C32.6813 28.2401 32.7181 28.7236 32.7183 29.2077C32.7183 29.4487 32.7085 29.6894 32.6888 29.9297C32.6741 30.1573 32.6436 30.3836 32.5976 30.607C32.5511 30.8157 32.4776 31.0215 32.3521 31.1965C32.2397 31.3549 32.0832 31.4766 31.9021 31.5465C31.8123 31.5811 31.7164 31.597 31.6202 31.5933C31.524 31.5895 31.4297 31.5662 31.3428 31.5247C31.1528 31.4317 31.0093 31.2715 30.8993 31.0942C30.7743 30.8927 30.6808 30.6722 30.5783 30.4592C30.4683 30.2302 30.3579 30.0016 30.2471 29.7732C30.1411 29.5541 30.0354 29.3346 29.9301 29.1147C29.9051 29.0602 29.8231 29.1077 29.8491 29.162C30.0716 29.6277 30.2991 30.0915 30.5216 30.5567C30.7108 30.9512 30.8933 31.4272 31.3216 31.618C31.5069 31.7008 31.7169 31.7097 31.9086 31.643C32.1001 31.5754 32.2685 31.455 32.3946 31.2957C32.6778 30.94 32.7341 30.4627 32.7748 30.025C32.8196 29.5345 32.8246 29.0413 32.7898 28.55C32.7549 28.0563 32.6843 27.5658 32.5786 27.0822C32.5259 26.8402 32.4651 26.6002 32.3961 26.3622C32.3333 26.145 32.2711 25.916 32.1331 25.732C32.0118 25.5692 31.8251 25.4427 31.6166 25.4395C31.4198 25.4362 31.2478 25.5525 31.1391 25.7102C31.0141 25.891 30.9871 26.114 31.0078 26.3285C31.0328 26.5815 31.1018 26.8307 31.1578 27.0785L31.3278 27.8382L31.4121 28.2152C31.4408 28.3323 31.4631 28.4508 31.4791 28.5702C31.4944 28.6857 31.4933 28.8028 31.4758 28.918C31.4703 28.9492 31.4691 28.99 31.4346 29.002C31.4228 29.006 31.41 29.0054 31.3987 29.0002C31.3874 28.9951 31.3785 28.9858 31.3738 28.9742C31.3173 28.8647 31.2698 28.7492 31.2186 28.638C31.1673 28.5267 31.1156 28.4112 31.0643 28.2975C30.8586 27.841 30.6556 27.383 30.4413 26.9305C30.2793 26.5887 30.0961 26.2107 29.7378 26.038C29.5628 25.9553 29.3664 25.9289 29.1757 25.9626C28.985 25.9962 28.8095 26.0881 28.6733 26.2257C28.3578 26.5522 28.4011 27.0257 28.4131 27.4422C28.4276 27.9545 28.4401 28.4672 28.4296 28.9797C28.4243 29.239 28.4131 29.498 28.3931 29.7562C28.3733 30.0107 28.3341 30.2645 28.3263 30.5195C28.3146 30.9137 28.4173 31.3562 28.7816 31.571C28.9698 31.6817 29.2026 31.7032 29.4006 31.6052C29.5578 31.5275 29.6591 31.3802 29.7236 31.2212C29.7986 31.0342 29.8311 30.8282 29.8581 30.6295C29.8905 30.3796 29.9089 30.128 29.9131 29.876C29.9156 29.755 29.9162 29.6338 29.9151 29.5125C29.9151 29.452 29.9143 29.3914 29.9128 29.3307L29.9113 29.24C29.9113 29.2237 29.9113 29.2077 29.9113 29.1915C29.9113 29.1855 29.9113 29.1795 29.9113 29.1735V29.1672C29.9141 29.145 29.9046 29.1482 29.8828 29.1765L29.8578 29.1702L29.8493 29.1607C29.8558 29.1712 29.8661 29.1788 29.878 29.1819C29.8899 29.185 29.9025 29.1834 29.9133 29.1775C29.9186 29.1742 29.9232 29.1699 29.9268 29.1648C29.9304 29.1598 29.933 29.154 29.9343 29.1479C29.9357 29.1419 29.9359 29.1356 29.9348 29.1295C29.9337 29.1233 29.9314 29.1175 29.9281 29.1122V29.1122Z" fill="black"/>
  <path d="M6.25825 10.189C6.22842 10.189 6.1998 10.1772 6.1787 10.1561C6.1576 10.135 6.14575 10.1063 6.14575 10.0765V8.87251C6.14575 8.84267 6.1576 8.81406 6.1787 8.79296C6.1998 8.77186 6.22842 8.76001 6.25825 8.76001C6.28809 8.76001 6.3167 8.77186 6.3378 8.79296C6.3589 8.81406 6.37075 8.84267 6.37075 8.87251V10.0765C6.37078 10.0913 6.3679 10.1059 6.36226 10.1196C6.35661 10.1333 6.34833 10.1457 6.33788 10.1561C6.32742 10.1666 6.31501 10.1749 6.30134 10.1805C6.28768 10.1862 6.27303 10.189 6.25825 10.189V10.189Z" fill="white"/>
  <path d="M6.80948 9.587H5.70698C5.67715 9.587 5.64853 9.57515 5.62743 9.55405C5.60634 9.53295 5.59448 9.50434 5.59448 9.4745C5.59448 9.44466 5.60634 9.41605 5.62743 9.39495C5.64853 9.37385 5.67715 9.362 5.70698 9.362H6.80948C6.83932 9.362 6.86793 9.37385 6.88903 9.39495C6.91013 9.41605 6.92198 9.44466 6.92198 9.4745C6.92198 9.50434 6.91013 9.53295 6.88903 9.55405C6.86793 9.57515 6.83932 9.587 6.80948 9.587Z" fill="white"/>
  <path d="M7.61592 7.64801C7.58608 7.64801 7.55747 7.63616 7.53637 7.61506C7.51527 7.59396 7.50342 7.56535 7.50342 7.53551V6.76176C7.50342 6.73192 7.51527 6.70331 7.53637 6.68221C7.55747 6.66111 7.58608 6.64926 7.61592 6.64926C7.64575 6.64926 7.67437 6.66111 7.69547 6.68221C7.71656 6.70331 7.72842 6.73192 7.72842 6.76176V7.53551C7.72835 7.56533 7.71648 7.59391 7.69539 7.61499C7.67431 7.63607 7.64573 7.64795 7.61592 7.64801V7.64801Z" fill="white"/>
  <path d="M7.97017 7.26125H7.26167C7.23183 7.26125 7.20322 7.2494 7.18212 7.2283C7.16102 7.20721 7.14917 7.17859 7.14917 7.14875C7.14917 7.11892 7.16102 7.0903 7.18212 7.0692C7.20322 7.04811 7.23183 7.03625 7.26167 7.03625H7.97017C8.00001 7.03625 8.02862 7.04811 8.04972 7.0692C8.07082 7.0903 8.08267 7.11892 8.08267 7.14875C8.08267 7.17859 8.07082 7.20721 8.04972 7.2283C8.02862 7.2494 8.00001 7.26125 7.97017 7.26125V7.26125Z" fill="white"/>
  <path d="M11.2902 23.3212C11.2604 23.3212 11.2318 23.3094 11.2107 23.2883C11.1896 23.2672 11.1777 23.2386 11.1777 23.2087V22.278C11.1777 22.2482 11.1896 22.2195 11.2107 22.1984C11.2318 22.1773 11.2604 22.1655 11.2902 22.1655C11.3201 22.1655 11.3487 22.1773 11.3698 22.1984C11.3909 22.2195 11.4027 22.2482 11.4027 22.278V23.2087C11.4027 23.2386 11.3908 23.2671 11.3697 23.2882C11.3486 23.3093 11.3201 23.3212 11.2902 23.3212V23.3212Z" fill="white"/>
  <path d="M11.7162 22.8557H10.864C10.8341 22.8557 10.8055 22.8439 10.7844 22.8228C10.7633 22.8017 10.7515 22.7731 10.7515 22.7432C10.7515 22.7134 10.7633 22.6848 10.7844 22.6637C10.8055 22.6426 10.8341 22.6307 10.864 22.6307H11.7162C11.7461 22.6307 11.7747 22.6426 11.7958 22.6637C11.8169 22.6848 11.8287 22.7134 11.8287 22.7432C11.8287 22.7731 11.8169 22.8017 11.7958 22.8228C11.7747 22.8439 11.7461 22.8557 11.7162 22.8557V22.8557Z" fill="white"/>
  <path d="M6.46209 26.4645C6.38127 26.5315 6.28692 26.5802 6.18551 26.6073C6.08411 26.6344 5.97804 26.6392 5.87459 26.6215C5.76584 26.6015 5.71159 26.5632 5.64759 26.4802C5.53359 26.332 5.28259 26.2875 5.10734 26.3217C4.66409 26.4085 4.40534 26.9217 4.42884 27.3567C4.44309 27.619 4.58834 27.8605 4.77684 28.0432C5.42984 28.6767 6.77184 28.671 7.05609 29.6517C7.29134 30.4642 6.89034 31.5802 6.35909 32.1942C5.83234 32.803 4.98409 33.1545 4.19809 32.9852C3.41209 32.816 2.75484 32.0715 2.78834 31.2672C2.79909 31.009 2.88159 30.7447 3.06334 30.5605C3.24509 30.3762 3.53584 30.2897 3.77334 30.392C4.26609 30.6045 4.27759 31.4332 4.79359 31.5805C5.12659 31.6757 5.48034 31.3717 5.52159 31.028C5.56284 30.6842 5.35984 30.3482 5.08909 30.1325C4.81834 29.9167 4.48559 29.7967 4.16234 29.6722C3.83909 29.5477 3.51059 29.4087 3.26234 29.1662C2.99934 28.908 2.85059 28.5482 2.80559 28.1825C2.76059 27.8167 2.81384 27.4447 2.91134 27.0895C3.22899 25.9549 3.98026 24.9909 5.00284 24.4057C5.27434 24.2522 5.56959 24.1255 5.88084 24.1057C6.19209 24.086 6.52334 24.192 6.72034 24.4337C6.96284 24.731 6.95684 25.157 6.89359 25.5352C6.83684 25.8805 6.72884 26.24 6.46209 26.4645Z" fill="#24FFAB"/>
  <path d="M6.42885 26.4313C6.32208 26.5187 6.19134 26.5717 6.05385 26.5833C5.93785 26.5928 5.80385 26.5818 5.71935 26.4933C5.6781 26.4505 5.6461 26.4048 5.59685 26.3683C5.54938 26.3352 5.49698 26.3099 5.4416 26.2933C5.33083 26.2601 5.21376 26.2539 5.1001 26.275C4.63785 26.36 4.37635 26.875 4.3806 27.3108C4.3851 27.8048 4.7776 28.169 5.1846 28.3858C5.54685 28.5773 5.94235 28.6965 6.3036 28.89C6.47385 28.981 6.63635 29.09 6.7676 29.2323C6.90167 29.3814 6.99395 29.5633 7.0351 29.7595C7.1476 30.2608 7.03659 30.8005 6.85109 31.2703C6.66359 31.7453 6.3761 32.1885 5.9666 32.5C5.5481 32.8188 5.0226 33.0078 4.4936 32.9785C4.24394 32.9633 4.00021 32.8962 3.77793 32.7815C3.55565 32.6669 3.3597 32.5071 3.2026 32.3125C2.88885 31.928 2.7316 31.386 2.9046 30.906C2.9951 30.6543 3.19535 30.446 3.46685 30.4028C3.68735 30.3675 3.8776 30.4745 4.00835 30.6455C4.1286 30.803 4.20585 30.989 4.30035 31.162C4.38785 31.3228 4.49535 31.487 4.66035 31.577C4.8671 31.69 5.1071 31.652 5.28985 31.5103C5.38761 31.4349 5.46456 31.3359 5.51347 31.2226C5.56237 31.1092 5.5816 30.9853 5.56935 30.8625C5.54285 30.5923 5.39435 30.3465 5.1966 30.1645C4.97785 29.9618 4.7021 29.8355 4.4281 29.7263C4.1541 29.617 3.8781 29.5243 3.6231 29.3763C3.37295 29.2368 3.16842 29.028 3.0341 28.775C2.7471 28.225 2.8136 27.5723 2.9876 26.9975C3.302 25.9728 3.97638 25.0963 4.88635 24.5298C5.35035 24.2433 5.9706 23.9798 6.4881 24.2948C6.9841 24.597 6.9226 25.2765 6.8001 25.7625C6.7366 26.014 6.62985 26.2598 6.42885 26.4315C6.38285 26.471 6.4496 26.537 6.4951 26.498C6.70385 26.3195 6.82009 26.0623 6.88684 25.801C6.95359 25.5398 6.99734 25.251 6.97134 24.976C6.94634 24.7105 6.84635 24.451 6.6316 24.2813C6.4241 24.1163 6.15085 24.046 5.88835 24.0598C5.5751 24.0765 5.27885 24.199 5.0076 24.3498C4.77246 24.481 4.54986 24.6336 4.3426 24.8055C3.92574 25.1514 3.57368 25.5686 3.30285 26.0378C3.01835 26.5305 2.81285 27.0878 2.75635 27.657C2.6981 28.2423 2.8451 28.882 3.3121 29.2738C3.7791 29.6655 4.4081 29.7445 4.91385 30.0655C5.1546 30.2185 5.3651 30.4405 5.44685 30.7188C5.52185 30.976 5.45935 31.2438 5.25235 31.4188C5.07735 31.5688 4.83835 31.5938 4.6496 31.4575C4.4946 31.3455 4.40435 31.1608 4.31935 30.995C4.22935 30.82 4.14185 30.6335 4.00035 30.4923C3.92017 30.4106 3.81946 30.352 3.70882 30.3227C3.59818 30.2934 3.48169 30.2945 3.3716 30.3258C2.81735 30.4783 2.6691 31.142 2.7736 31.6388C2.8766 32.1278 3.2121 32.5538 3.63635 32.8093C4.08885 33.0818 4.63485 33.1343 5.14235 33.0038C5.66295 32.8671 6.12527 32.5654 6.4601 32.144C6.78421 31.7277 7.00746 31.242 7.11235 30.725C7.20535 30.2708 7.22185 29.7283 6.9581 29.325C6.73485 28.9828 6.3551 28.7945 5.99085 28.6388C5.61935 28.4798 5.2141 28.348 4.89735 28.0888C4.69335 27.9213 4.52235 27.6888 4.4821 27.423C4.4476 27.1908 4.51085 26.938 4.63035 26.7383C4.7446 26.5473 4.9331 26.3845 5.1621 26.3615C5.28262 26.3473 5.40461 26.3699 5.5121 26.4263C5.6121 26.482 5.65835 26.5913 5.7646 26.638C6.0026 26.7423 6.3041 26.6568 6.4961 26.4985C6.54185 26.4593 6.4751 26.3933 6.42885 26.4313Z" fill="black"/>
  <path d="M39.0067 27.7422C38.9487 27.7938 38.8803 27.8323 38.806 27.8549C38.7318 27.8776 38.6536 27.8839 38.5767 27.8735C38.5427 27.8703 38.5098 27.8598 38.4803 27.8428C38.4507 27.8258 38.4251 27.8027 38.4052 27.775C38.3172 27.6685 38.1302 27.6422 38.0019 27.672C37.6769 27.747 37.4987 28.134 37.5269 28.4547C37.5442 28.6482 37.6579 28.8227 37.8019 28.953C38.3019 29.403 39.2927 29.3645 39.5284 30.082C39.7237 30.6762 39.4564 31.5112 39.0799 31.979C38.7067 32.4425 38.0897 32.7245 37.5049 32.62C36.9202 32.5155 36.4144 31.9827 36.4182 31.3875C36.4182 31.1962 36.4734 30.999 36.6024 30.858C36.7314 30.717 36.9447 30.6455 37.1227 30.715C37.4924 30.859 37.5227 31.471 37.9079 31.5665C38.1564 31.628 38.4099 31.3942 38.4314 31.139C38.4529 30.8837 38.2942 30.641 38.0882 30.489C37.8822 30.337 37.6334 30.257 37.3914 30.1732C37.1494 30.0895 36.9029 29.9957 36.7139 29.8232C36.5139 29.6392 36.3934 29.3772 36.3507 29.1082C36.3079 28.8392 36.3374 28.5627 36.4007 28.2977C36.6058 27.4511 37.1356 26.7192 37.8757 26.2597C38.0722 26.1392 38.2872 26.0377 38.5169 26.016C38.7467 25.9942 38.9937 26.0627 39.1457 26.2362C39.3327 26.4495 39.3394 26.7647 39.3024 27.0457C39.2684 27.3 39.1979 27.5692 39.0067 27.7422Z" fill="#24FFAB"/>
  <path d="M38.9736 27.709C38.8978 27.776 38.8031 27.8179 38.7026 27.829C38.6151 27.8385 38.5208 27.831 38.4576 27.7635C38.4295 27.7301 38.3968 27.701 38.3603 27.677C38.3215 27.6543 38.2793 27.6379 38.2353 27.6282C38.1501 27.6082 38.0613 27.6088 37.9763 27.63C37.6396 27.7177 37.4603 28.105 37.4786 28.43C37.4993 28.8005 37.8036 29.061 38.1163 29.2102C38.3888 29.3407 38.6836 29.4185 38.9546 29.553C39.0836 29.613 39.2012 29.6947 39.3023 29.7947C39.4043 29.9031 39.4754 30.0367 39.5083 30.1817C39.5981 30.5457 39.5293 30.941 39.4048 31.2882C39.2798 31.6382 39.0798 31.967 38.7898 32.2062C38.4921 32.4517 38.1081 32.6037 37.7196 32.595C37.537 32.5899 37.3574 32.5469 37.1923 32.4688C37.0271 32.3906 36.8801 32.279 36.7603 32.141C36.5213 31.8685 36.3913 31.477 36.5051 31.122C36.5656 30.9332 36.7081 30.7765 36.9086 30.741C37.0671 30.713 37.2018 30.791 37.2986 30.9105C37.3893 31.022 37.4486 31.1555 37.5236 31.2782C37.5931 31.3952 37.6778 31.5147 37.8026 31.5782C37.9656 31.66 38.1473 31.6237 38.2846 31.5092C38.3564 31.4486 38.4115 31.3706 38.4446 31.2826C38.4776 31.1947 38.4876 31.0997 38.4736 31.0067C38.4461 30.809 38.3273 30.6317 38.1778 30.502C38.0108 30.3582 37.8051 30.271 37.5996 30.1972C37.3941 30.1235 37.1883 30.063 36.9971 29.962C36.8101 29.8675 36.6544 29.7211 36.5486 29.5402C36.3206 29.1422 36.3521 28.6602 36.4656 28.2317C36.6709 27.4669 37.1467 26.8024 37.8046 26.3615C38.1371 26.1407 38.5886 25.93 38.9728 26.1552C39.3318 26.3657 39.3028 26.8552 39.2278 27.2087C39.1881 27.395 39.1173 27.579 38.9741 27.7105C38.9296 27.7515 38.9961 27.8175 39.0406 27.7767C39.1921 27.6375 39.2726 27.4415 39.3156 27.2437C39.3586 27.046 39.3821 26.8372 39.3571 26.6365C39.3321 26.4357 39.2521 26.2467 39.0893 26.1215C38.9316 26.0002 38.7226 25.9527 38.5263 25.969C38.2948 25.9882 38.0788 26.084 37.8816 26.2017C37.7076 26.3061 37.5437 26.4265 37.3921 26.5612C37.0922 26.8278 36.842 27.1456 36.6533 27.4997C36.4533 27.8747 36.3128 28.2997 36.2871 28.7272C36.2606 29.163 36.3871 29.632 36.7441 29.9107C37.1011 30.1895 37.5711 30.231 37.9546 30.4582C38.1281 30.5607 38.2838 30.711 38.3521 30.9047C38.3869 30.9966 38.395 31.0965 38.3753 31.1927C38.354 31.2802 38.3077 31.3596 38.2421 31.4212C38.1801 31.483 38.0987 31.5215 38.0116 31.5302C37.9383 31.5341 37.8659 31.5136 37.8056 31.4717C37.6906 31.3952 37.6206 31.264 37.5556 31.1467C37.4846 31.0192 37.4151 30.8842 37.3083 30.7825C37.2469 30.7222 37.1705 30.6794 37.087 30.6586C37.0034 30.6378 36.9159 30.6396 36.8333 30.664C36.4136 30.7867 36.3133 31.2937 36.4068 31.6682C36.4966 32.0285 36.7568 32.3367 37.0773 32.516C37.4203 32.707 37.8273 32.734 38.2008 32.6252C38.5858 32.5106 38.9233 32.2745 39.1631 31.9522C39.3915 31.6388 39.5444 31.2768 39.6096 30.8945C39.6454 30.705 39.6525 30.5111 39.6306 30.3195C39.6091 30.1537 39.5633 29.9885 39.4683 29.849C39.2961 29.5967 39.0108 29.4637 38.7348 29.3562C38.4541 29.2465 38.1526 29.1602 37.9073 28.9782C37.7556 28.8657 37.6266 28.7032 37.5858 28.5165C37.5498 28.351 37.5858 28.1642 37.6638 28.0165C37.7418 27.8687 37.8663 27.7475 38.0323 27.7165C38.1166 27.7007 38.2036 27.7102 38.2823 27.744C38.3626 27.78 38.4016 27.8627 38.4823 27.8977C38.6653 27.978 38.8986 27.904 39.0413 27.7777C39.0853 27.7352 39.0188 27.6692 38.9736 27.709Z" fill="black"/>
  <path d="M8.77781 30.2915L8.77381 31.627C8.77381 31.8792 8.76256 32.1877 8.55306 32.3635C8.36681 32.5197 8.08131 32.526 7.86631 32.4315C7.60581 32.3175 7.42431 32.0677 7.32806 31.8002C7.23181 31.5327 7.20981 31.245 7.18906 30.9615C7.12956 30.1497 7.07281 29.3342 7.13331 28.5225C7.16606 28.0815 7.23556 27.636 7.42081 27.2345C7.60606 26.833 7.92081 26.4757 8.33106 26.313C8.84656 26.109 9.59281 26.1897 10.0241 26.5552C10.2526 26.749 10.3831 27.0387 10.4373 27.3332C10.5481 27.9367 10.5278 28.7215 10.2231 29.2695C9.93381 29.79 9.33231 30.0385 8.77531 30.2497" fill="#24FFAB"/>
  <path d="M8.73109 30.2915L8.72809 31.2403C8.72809 31.3863 8.72809 31.5323 8.72659 31.6783C8.72804 31.7901 8.7179 31.9018 8.69634 32.0115C8.67673 32.1193 8.62708 32.2193 8.55309 32.3C8.47201 32.3783 8.36751 32.4278 8.25559 32.441C8.02159 32.4733 7.79459 32.3765 7.63059 32.2108C7.45184 32.0288 7.35559 31.7873 7.30334 31.541C7.24134 31.246 7.23259 30.9398 7.21159 30.641C7.16834 30.021 7.13509 29.3988 7.16359 28.777C7.18859 28.214 7.25309 27.6233 7.52984 27.1215C7.64577 26.9067 7.80314 26.7169 7.99284 26.5633C8.17157 26.4221 8.38165 26.3259 8.60534 26.283C9.03859 26.198 9.53659 26.271 9.90534 26.5243C10.1053 26.6625 10.2448 26.8665 10.3253 27.0948C10.4058 27.323 10.4336 27.5748 10.4463 27.8168C10.4613 28.0668 10.4486 28.3178 10.4083 28.565C10.3678 28.803 10.2988 29.04 10.1801 29.2508C9.94859 29.6638 9.51109 29.9008 9.08884 30.0758C8.98109 30.121 8.87184 30.163 8.76384 30.2045C8.70809 30.2258 8.73234 30.3163 8.78884 30.295C9.24284 30.1228 9.72584 29.934 10.0638 29.57C10.4098 29.195 10.5246 28.6615 10.5448 28.1665C10.5549 27.9094 10.539 27.652 10.4976 27.398C10.4561 27.14 10.3726 26.8888 10.2096 26.6805C9.91209 26.3 9.38859 26.15 8.92509 26.1565C8.69137 26.1566 8.4602 26.205 8.24609 26.2988C8.01621 26.4072 7.81453 26.5674 7.65684 26.7668C7.29634 27.2125 7.15909 27.7803 7.10284 28.34C7.03834 28.9783 7.05684 29.623 7.09484 30.2623C7.11384 30.581 7.13234 30.9008 7.16384 31.2183C7.19184 31.502 7.24384 31.7903 7.38884 32.0403C7.51134 32.253 7.70034 32.4368 7.93884 32.5078C8.16959 32.576 8.44909 32.5418 8.62259 32.363C8.79059 32.19 8.81609 31.9335 8.82009 31.7043C8.82559 31.3915 8.82259 31.0793 8.82359 30.7658L8.82509 30.2908C8.82423 30.2789 8.81891 30.2678 8.81022 30.2598C8.80152 30.2517 8.79009 30.2472 8.77822 30.2472C8.76634 30.2472 8.75491 30.2517 8.74621 30.2598C8.73752 30.2678 8.73221 30.2789 8.73134 30.2908L8.73109 30.2915Z" fill="black"/>
  <path d="M9.46239 27.798C9.48295 27.7449 9.48726 27.6869 9.47475 27.6313C9.46224 27.5758 9.43348 27.5252 9.39214 27.486C9.21314 27.2988 8.81489 27.4645 8.62364 27.5585C8.41039 27.663 8.16989 27.8395 8.15139 28.0978C8.14824 28.1465 8.15498 28.1954 8.1712 28.2415C8.18742 28.2876 8.21279 28.33 8.24578 28.366C8.27877 28.4021 8.31871 28.4311 8.36319 28.4513C8.40767 28.4715 8.45578 28.4826 8.50464 28.4838C8.69464 28.4895 8.93339 28.3383 9.08189 28.229C9.21089 28.1345 9.40189 27.9725 9.46239 27.798Z" fill="#A7A8E1"/>
  <path d="M9.50776 27.8105C9.53126 27.7434 9.5334 27.6707 9.51389 27.6023C9.49437 27.534 9.45415 27.4733 9.39876 27.4288C9.30626 27.3538 9.18376 27.3453 9.07026 27.36C8.947 27.379 8.8269 27.4146 8.71326 27.466C8.60415 27.5105 8.50035 27.567 8.40376 27.6345C8.29776 27.7113 8.20001 27.8073 8.14676 27.9288C8.11871 27.9882 8.10435 28.0532 8.10474 28.119C8.10513 28.1848 8.12026 28.2496 8.14901 28.3088C8.17801 28.3644 8.21932 28.4127 8.26979 28.4499C8.32026 28.4872 8.37856 28.5124 8.44026 28.5238C8.58026 28.5488 8.71826 28.4988 8.84026 28.4355C8.97438 28.3661 9.10019 28.2818 9.21526 28.184C9.33601 28.084 9.45351 27.9615 9.50776 27.8105C9.52826 27.7535 9.43751 27.729 9.41726 27.7855C9.37576 27.9015 9.28476 27.9968 9.19501 28.0778C9.10818 28.155 9.01474 28.2246 8.91576 28.2855C8.73001 28.4013 8.46226 28.528 8.28101 28.3355C8.24519 28.2962 8.21972 28.2486 8.20689 28.197C8.19406 28.1455 8.19427 28.0915 8.20751 28.04C8.23401 27.9293 8.30576 27.838 8.39026 27.765C8.47514 27.6943 8.56925 27.6354 8.67001 27.59C8.76156 27.5452 8.85694 27.5086 8.95501 27.4808C9.05901 27.4523 9.18276 27.429 9.28626 27.4715C9.34137 27.4964 9.38572 27.5402 9.41126 27.595C9.42506 27.6251 9.43266 27.6576 9.43361 27.6907C9.43455 27.7238 9.42882 27.7567 9.41676 27.7875C9.39826 27.8428 9.48876 27.8675 9.50776 27.8105Z" fill="black"/>
  <path d="M12.22 29.577C12.1255 29.4035 11.959 29.3555 11.7875 29.4675C11.616 29.5795 11.5967 29.848 11.5655 30.0367C11.523 30.293 11.5507 30.5552 11.5547 30.815C11.5587 31.0747 11.5355 31.346 11.4035 31.5697C11.2715 31.7935 11.0035 31.9555 10.752 31.8947C10.5675 31.8497 10.4242 31.6947 10.3482 31.5217C10.2722 31.3487 10.2537 31.1547 10.2445 30.9652C10.191 29.8902 10.3945 28.818 10.6135 27.763C10.6945 27.372 10.7812 26.9722 10.992 26.6327C11.2027 26.2932 11.5645 26.0202 11.9637 26.026C12.28 26.0305 12.5752 26.2095 12.781 26.4492C12.9867 26.689 13.1147 26.986 13.219 27.2845C13.6487 28.5147 13.7247 29.8435 13.6482 31.1442C13.6372 31.3277 13.6212 31.5192 13.5267 31.6762C13.4809 31.7528 13.4183 31.818 13.3437 31.867C13.2692 31.916 13.1845 31.9475 13.096 31.9592C13.0075 31.971 12.9176 31.9625 12.8328 31.9346C12.748 31.9067 12.6707 31.86 12.6065 31.798C12.3935 31.5925 12.3645 31.2667 12.3487 30.971L12.2927 29.9337C12.2862 29.811 12.2782 29.6842 12.22 29.577Z" fill="#24FFAB"/>
  <path d="M11.8692 28C11.9097 28.0333 11.9602 28.052 12.0127 28.0532C12.1357 28.0597 12.2127 28.0925 12.3127 27.9845C12.3854 27.905 12.3952 27.8095 12.3859 27.7035C12.3709 27.535 12.2699 27.2807 12.0589 27.3117C11.8152 27.3485 11.6749 27.8365 11.8692 28Z" fill="#511884"/>
  <path d="M11.8361 28.034C11.9156 28.099 12.0111 28.102 12.1093 28.109C12.1531 28.1139 12.1973 28.1082 12.2384 28.0925C12.2794 28.0767 12.3161 28.0514 12.3453 28.0185C12.4703 27.8795 12.4501 27.6613 12.3823 27.4993C12.3216 27.354 12.1891 27.2243 12.0188 27.2743C11.8811 27.3148 11.7966 27.4575 11.7581 27.5868C11.7148 27.7318 11.7126 27.9268 11.8361 28.0348C11.8813 28.0745 11.9478 28.0098 11.9023 27.9685C11.8223 27.8985 11.8148 27.776 11.8328 27.6763C11.8521 27.5713 11.9008 27.4513 11.9933 27.389C12.0145 27.3743 12.0386 27.3644 12.064 27.3601C12.0895 27.3557 12.1155 27.3571 12.1403 27.364C12.1945 27.3844 12.2391 27.4244 12.2653 27.476C12.3313 27.5873 12.3681 27.7535 12.3231 27.878C12.2956 27.953 12.2281 28.0168 12.1453 28.017C12.1051 28.017 12.0653 28.011 12.0253 28.0083C11.9804 28.0083 11.9367 27.9942 11.9003 27.9678C11.8914 27.9593 11.8795 27.9546 11.8672 27.9546C11.8549 27.9546 11.8431 27.9593 11.8341 27.9678C11.8257 27.9769 11.8212 27.9889 11.8215 28.0013C11.8219 28.0137 11.8271 28.0254 11.8361 28.034V28.034Z" fill="black"/>
  <path d="M12.2605 29.5532C12.1953 29.4367 12.0808 29.3477 11.9413 29.3617C11.8751 29.3695 11.8119 29.3936 11.7573 29.4318C11.7027 29.4699 11.6583 29.521 11.6283 29.5805C11.5695 29.694 11.5505 29.8222 11.532 29.9472C11.5213 30.0222 11.5085 30.0947 11.5025 30.1692C11.4956 30.2623 11.4935 30.3557 11.4963 30.449C11.5035 30.7762 11.5463 31.1217 11.419 31.4335C11.319 31.6802 11.058 31.914 10.7735 31.8507C10.462 31.7815 10.3373 31.4395 10.306 31.158C10.2885 30.982 10.2807 30.8051 10.2828 30.6282C10.2828 30.4472 10.2885 30.266 10.3 30.0852C10.347 29.351 10.4835 28.6262 10.6315 27.9067C10.7543 27.309 10.877 26.6112 11.4228 26.245C11.5386 26.1654 11.6697 26.1108 11.8078 26.0845C11.9493 26.0604 12.0946 26.0723 12.2303 26.1192C12.517 26.215 12.742 26.4367 12.8985 26.6892C13.0735 26.9702 13.18 27.2892 13.2735 27.6057C13.3719 27.9377 13.4486 28.2756 13.503 28.6175C13.6138 29.3055 13.6418 30.0055 13.6205 30.7012C13.6155 30.8735 13.6085 31.046 13.5955 31.218C13.584 31.3715 13.562 31.5315 13.4778 31.664C13.4008 31.785 13.2792 31.8708 13.1393 31.9028C12.9995 31.9348 12.8527 31.9103 12.7308 31.8347C12.4783 31.6815 12.423 31.3655 12.4023 31.0942C12.3753 30.7387 12.3628 30.3817 12.3438 30.0257C12.335 29.866 12.336 29.6982 12.2595 29.5532C12.2313 29.4997 12.1503 29.5472 12.1785 29.6005C12.214 29.674 12.2344 29.7539 12.2385 29.8355C12.2465 29.9255 12.2493 30.0157 12.2543 30.106L12.2848 30.674C12.294 30.8427 12.2988 31.0127 12.3163 31.181C12.3275 31.3283 12.3622 31.4729 12.4193 31.6092C12.4781 31.7451 12.5799 31.858 12.709 31.9305C12.8421 32.0041 12.9971 32.0278 13.1461 31.9972C13.2951 31.9667 13.4282 31.8839 13.5215 31.7637C13.6228 31.6342 13.662 31.4742 13.6805 31.3137C13.7 31.142 13.7055 30.9672 13.7108 30.7945C13.7173 30.6158 13.7204 30.437 13.7203 30.258C13.7203 29.9005 13.704 29.543 13.6703 29.1872C13.602 28.4842 13.4625 27.7797 13.2088 27.119C13.0923 26.8162 12.9398 26.516 12.6968 26.294C12.4738 26.0907 12.1765 25.9527 11.8695 25.982C11.5745 26.0097 11.3093 26.1742 11.114 26.3917C10.8955 26.635 10.7693 26.9435 10.6828 27.255C10.6375 27.4182 10.6025 27.584 10.5683 27.7495C10.5301 27.9337 10.4928 28.118 10.4565 28.3025C10.3848 28.6717 10.3203 29.0427 10.272 29.416C10.2223 29.7875 10.1947 30.1617 10.1893 30.5365C10.1875 30.7207 10.1893 30.9057 10.2055 31.0895C10.2198 31.2602 10.2493 31.4327 10.3278 31.5867C10.3922 31.7183 10.4961 31.8264 10.625 31.896C10.6893 31.9282 10.7593 31.9472 10.8311 31.952C10.9028 31.9568 10.9748 31.9473 11.0428 31.924C11.1808 31.8762 11.3016 31.7887 11.39 31.6725C11.4851 31.5431 11.5479 31.3928 11.573 31.2342C11.6375 30.8812 11.5678 30.5242 11.598 30.1692C11.604 30.0942 11.6168 30.0217 11.6278 29.948C11.6365 29.8837 11.6486 29.82 11.664 29.757C11.696 29.634 11.755 29.521 11.8795 29.4725C11.9331 29.4495 11.9935 29.4481 12.048 29.4687C12.1059 29.4965 12.1528 29.5429 12.1813 29.6005C12.2088 29.6532 12.2898 29.606 12.2605 29.5532Z" fill="black"/>
  <path d="M15.7098 27.6153C16.146 27.2668 16.129 26.5153 15.8195 26.0925C15.6445 25.8535 15.3498 25.6953 15.054 25.7175C14.4473 25.764 14.1575 26.4005 13.9953 26.9028C13.6093 28.0968 13.4415 29.39 13.7315 30.6108C13.819 30.9785 13.9538 31.3478 14.2125 31.623C14.4713 31.8983 14.8773 32.061 15.2375 31.948C15.5893 31.8365 15.8205 31.4963 15.9455 31.148C16.0705 30.7998 16.114 30.2325 15.6693 30.089C15.5065 30.0365 15.354 30.1305 15.2148 30.209C15.0648 30.2935 14.8228 30.3405 14.6833 30.2038C14.596 30.1185 14.5948 29.9808 14.6013 29.8588C14.6163 29.5805 14.8013 27.8418 14.9263 27.6913C15.0088 27.5913 15.171 27.7358 15.2808 27.7455C15.435 27.7575 15.5882 27.711 15.7098 27.6153Z" fill="#24FFAB"/>
  <path d="M15.7537 27.6483C15.9669 27.4763 16.0742 27.2103 16.0979 26.9425C16.1228 26.6685 16.0631 26.3935 15.9269 26.1545C15.7669 25.8823 15.4757 25.6845 15.1562 25.6698C14.8762 25.657 14.6154 25.7905 14.4289 25.993C14.2424 26.1955 14.1217 26.447 14.0264 26.7013C13.7758 27.4018 13.6203 28.1327 13.5639 28.8745C13.5364 29.2616 13.5459 29.6504 13.5922 30.0358C13.6372 30.3985 13.7084 30.768 13.8487 31.107C13.9782 31.4205 14.1769 31.7108 14.4764 31.882C14.7579 32.0435 15.1042 32.087 15.3992 31.935C15.6799 31.7905 15.8644 31.508 15.9782 31.2223C16.0677 30.9973 16.1147 30.7438 16.0719 30.5033C16.0533 30.3856 16.0012 30.2758 15.9219 30.187C15.8299 30.087 15.6854 30.0158 15.5484 30.029C15.4603 30.0409 15.3753 30.0701 15.2984 30.1148C15.2314 30.1505 15.1684 30.1915 15.0959 30.2148C14.9724 30.255 14.8019 30.2675 14.7112 30.1543C14.6392 30.065 14.6529 29.9293 14.6612 29.8225C14.6657 29.7595 14.6714 29.6975 14.6774 29.6338C14.6964 29.4338 14.7184 29.2338 14.7422 29.0338C14.7692 28.807 14.7984 28.5803 14.8329 28.3543C14.8564 28.1783 14.8897 28.0039 14.9329 27.8318C14.9399 27.8068 14.9477 27.7795 14.9579 27.754C14.9607 27.7463 14.9634 27.741 14.9597 27.7493C14.9617 27.745 14.9634 27.7405 14.9657 27.7363C14.9679 27.732 14.9692 27.7298 14.9709 27.7265C14.9727 27.7233 14.9799 27.714 14.9737 27.722C14.9674 27.73 14.9787 27.7165 14.9809 27.7148C14.9844 27.7118 14.9883 27.7094 14.9924 27.7075C15.0025 27.704 15.0133 27.7029 15.0239 27.7043C15.0527 27.7084 15.0807 27.7168 15.1069 27.7293C15.1664 27.7543 15.2239 27.7863 15.2889 27.7933C15.4571 27.8066 15.624 27.7549 15.7552 27.6488C15.7639 27.6399 15.7687 27.628 15.7687 27.6156C15.7687 27.6032 15.7639 27.5913 15.7552 27.5825C15.7462 27.574 15.7344 27.5692 15.722 27.5692C15.7097 27.5692 15.6979 27.574 15.6889 27.5825C15.6222 27.6341 15.5448 27.6703 15.4624 27.6885C15.3935 27.7074 15.3208 27.7074 15.2519 27.6885C15.1482 27.6533 14.9989 27.5475 14.9044 27.6585C14.8773 27.6964 14.8584 27.7396 14.8489 27.7853C14.8292 27.8543 14.8144 27.9248 14.8007 27.995C14.7182 28.4185 14.6692 28.8493 14.6219 29.2778C14.6037 29.4428 14.5862 29.608 14.5719 29.7733C14.5628 29.8545 14.5613 29.9365 14.5677 30.018C14.5729 30.0966 14.6036 30.1714 14.6552 30.231C14.7046 30.2815 14.7683 30.3155 14.8377 30.3285C14.9777 30.3555 15.1267 30.3183 15.2499 30.25C15.3264 30.2075 15.4022 30.1605 15.4869 30.136C15.56 30.114 15.6385 30.1187 15.7084 30.1493C15.9289 30.2428 15.9982 30.4803 15.9944 30.7018C15.9899 30.9553 15.9052 31.206 15.7782 31.4238C15.6282 31.6808 15.3907 31.9058 15.0817 31.9338C14.7727 31.9618 14.4659 31.812 14.2567 31.5903C14.0229 31.342 13.8952 31.0153 13.8104 30.6903C13.6202 29.9603 13.6042 29.1923 13.7002 28.4468C13.75 28.0692 13.8261 27.6955 13.9279 27.3285C14.0072 27.04 14.0922 26.7478 14.2229 26.4785C14.3337 26.2495 14.4827 26.0223 14.7032 25.8858C14.8124 25.8173 14.9366 25.7763 15.0652 25.7663C15.2212 25.7561 15.3767 25.7928 15.5117 25.8718C15.7597 26.013 15.9117 26.2608 15.9757 26.5338C16.0339 26.7838 16.0229 27.0635 15.9112 27.2978C15.8591 27.4085 15.7827 27.5061 15.6877 27.5833C15.6789 27.5921 15.674 27.604 15.674 27.6164C15.674 27.6288 15.6789 27.6407 15.6877 27.6495C15.6967 27.6578 15.7086 27.6624 15.7209 27.6621C15.7332 27.6619 15.745 27.6569 15.7537 27.6483V27.6483Z" fill="black"/>
  <path d="M18.0137 31.1862C18.2067 31.118 18.4267 31.055 18.6324 31.05C19.1149 31.0377 19.3502 31.575 19.1669 31.98C18.9459 32.4685 18.2514 32.7745 17.7522 32.7845C17.4022 32.7915 17.0462 32.6782 16.7787 32.4515C16.5112 32.2247 16.3477 31.9065 16.2324 31.579C15.9027 30.6402 15.9494 29.6115 16.0897 28.6262C16.1374 28.2895 16.1974 27.9492 16.3457 27.6432C16.4772 27.3717 16.6889 27.1457 16.9679 27.0245C17.5229 26.7832 18.1867 26.9815 18.7179 27.189C19.1242 27.3475 19.6569 27.739 19.3257 28.239C19.0429 28.6657 18.4507 28.362 18.0529 28.3195C17.8999 28.303 17.5657 28.2132 17.4382 28.3495C17.4168 28.3733 17.403 28.4029 17.3985 28.4345C17.3941 28.4662 17.3992 28.4985 17.4132 28.5272C17.4802 28.6587 17.7089 28.6602 17.8339 28.682C18.1089 28.7295 18.5014 28.732 18.7032 28.9475C18.9684 29.2322 18.8927 29.8407 18.5032 29.985C18.1382 30.1202 17.4822 29.8077 17.3754 30.3662C17.3337 30.5847 17.3627 30.8975 17.4707 31.095C17.5917 31.315 17.8074 31.259 18.0137 31.1862Z" fill="#24FFAB"/>
  <path d="M18.0249 31.2315C18.2266 31.1605 18.4441 31.0922 18.6601 31.0967C18.7294 31.0979 18.7977 31.1134 18.8608 31.1422C18.9239 31.171 18.9803 31.2124 19.0266 31.264C19.1164 31.3669 19.17 31.4965 19.1791 31.6327C19.1896 31.7782 19.1541 31.9233 19.0776 32.0475C18.9094 32.3282 18.6039 32.5162 18.3026 32.6262C17.9706 32.7472 17.6156 32.7762 17.2751 32.67C17.0843 32.6112 16.9091 32.5104 16.7624 32.375C16.6199 32.2369 16.5027 32.0748 16.4161 31.8962C16.2231 31.5137 16.1204 31.081 16.0694 30.6575C16.0159 30.212 16.0211 29.761 16.0579 29.3145C16.0761 29.0895 16.1024 28.8675 16.1329 28.6452C16.1604 28.4258 16.2034 28.2086 16.2616 27.9952C16.3186 27.801 16.3976 27.6115 16.5181 27.4475C16.6277 27.2971 16.7716 27.175 16.9379 27.0915C17.3129 26.9052 17.7531 26.9472 18.1449 27.0495C18.3398 27.1015 18.5313 27.1657 18.7181 27.2417C18.8634 27.2984 18.999 27.3773 19.1201 27.4755C19.2331 27.5695 19.3364 27.688 19.3701 27.8345C19.4064 27.9882 19.3451 28.155 19.2426 28.2702C19.0304 28.5067 18.6689 28.4077 18.4024 28.3452C18.3274 28.3272 18.2524 28.3087 18.1774 28.2952C18.1124 28.283 18.0486 28.2767 17.9851 28.2667C17.8369 28.2432 17.6716 28.207 17.5239 28.2507C17.4471 28.2735 17.3799 28.324 17.3571 28.4035C17.3459 28.4446 17.3474 28.4881 17.3615 28.5283C17.3756 28.5685 17.4016 28.6035 17.4361 28.6285C17.5514 28.7165 17.7176 28.7152 17.8551 28.7365C18.0239 28.7615 18.1951 28.7745 18.3601 28.819C18.5079 28.8587 18.6476 28.9285 18.7279 29.064C18.8599 29.2867 18.8391 29.6182 18.6681 29.816C18.5876 29.9077 18.4745 29.9645 18.3529 29.9742C18.2249 29.9875 18.0956 29.9762 17.9671 29.9742C17.8451 29.9715 17.7151 29.9722 17.5994 30.0165C17.5411 30.0382 17.4884 30.0726 17.4453 30.1174C17.4021 30.1621 17.3695 30.216 17.3499 30.275C17.2931 30.442 17.2999 30.637 17.3291 30.8087C17.3434 30.8994 17.3694 30.9878 17.4064 31.0717C17.4414 31.1495 17.4931 31.2235 17.5711 31.2625C17.7151 31.3345 17.8829 31.2815 18.0249 31.2315C18.0816 31.2115 18.0571 31.121 17.9999 31.141C17.8674 31.1875 17.6786 31.2572 17.5616 31.141C17.5009 31.0807 17.4699 30.991 17.4471 30.9107C17.4217 30.8177 17.4071 30.7219 17.4039 30.6255C17.3986 30.483 17.4039 30.3027 17.5009 30.188C17.5759 30.1012 17.6886 30.0735 17.7996 30.0652C17.9314 30.0557 18.0634 30.068 18.1951 30.0692C18.3229 30.0692 18.4546 30.0627 18.5701 30.005C18.8381 29.8722 18.9359 29.5367 18.8936 29.2587C18.875 29.1162 18.8082 28.9844 18.7044 28.885C18.5746 28.768 18.3989 28.7202 18.2306 28.691C18.1424 28.6757 18.0531 28.666 17.9644 28.6537C17.8909 28.6442 17.8181 28.6315 17.7446 28.6222C17.6711 28.613 17.5946 28.6042 17.5299 28.5722C17.4651 28.5402 17.4156 28.4742 17.4549 28.4012C17.4864 28.3425 17.5649 28.3262 17.6254 28.3225C17.7034 28.3188 17.7816 28.3235 17.8586 28.3365C17.9994 28.357 18.1399 28.376 18.2786 28.4082C18.4384 28.4455 18.5976 28.4885 18.7614 28.5042C18.9114 28.5187 19.0701 28.5065 19.1999 28.4247C19.2712 28.3771 19.3317 28.3152 19.3778 28.2429C19.4238 28.1705 19.4544 28.0895 19.4674 28.0047C19.4906 27.8457 19.4379 27.6935 19.3424 27.5675C19.1289 27.2892 18.7879 27.1562 18.4674 27.0465C18.0674 26.9102 17.6316 26.8122 17.2109 26.8982C17.0148 26.9385 16.8311 27.0247 16.6749 27.15C16.5262 27.2713 16.405 27.4228 16.3191 27.5945C16.1149 27.9945 16.0614 28.4595 16.0076 28.9007C15.9524 29.3565 15.9221 29.8167 15.9449 30.2757C15.9671 30.7277 16.0414 31.1797 16.1949 31.607C16.3316 31.9905 16.5406 32.3635 16.8894 32.5912C17.2144 32.8037 17.6211 32.874 18.0019 32.8067C18.3361 32.7477 18.6681 32.6002 18.9241 32.3757C19.0486 32.2704 19.1483 32.139 19.2161 31.9907C19.277 31.8478 19.2934 31.6899 19.2634 31.5375C19.2365 31.3941 19.165 31.2629 19.0591 31.1625C18.9457 31.0587 18.7968 31.0024 18.6431 31.005C18.4244 31.0077 18.2081 31.0712 18.0036 31.1432C17.9446 31.161 17.9689 31.2515 18.0249 31.2315Z" fill="black"/>
  <path d="M24.214 28.266C24.2015 28.2758 24.192 28.2889 24.1866 28.3038C24.1811 28.3187 24.1799 28.3349 24.1831 28.3504C24.1863 28.3659 24.1937 28.3803 24.2045 28.3919C24.2153 28.4035 24.2292 28.4118 24.2445 28.416C24.5442 28.4787 24.8214 28.621 25.0472 28.8278C25.3282 29.0815 25.5335 29.4213 25.6552 29.7883C25.8579 30.4084 25.8284 31.081 25.5725 31.681C25.317 32.2703 24.8392 32.7495 24.2662 32.9913C23.8085 33.1843 23.3065 33.2273 22.813 33.2358C22.4777 33.2418 22.0985 33.2398 21.7522 33.1703C21.5522 33.13 21.4105 32.9418 21.4172 32.7285L21.488 30.5055L21.588 27.3605C21.6165 26.4605 21.6575 25.4665 21.746 24.557C21.7512 24.4927 21.7754 24.4314 21.8155 24.3807C21.8555 24.3301 21.9096 24.2925 21.971 24.2725C22.4597 24.124 22.9565 23.992 23.4642 23.9873C24.0425 23.982 24.6465 24.1623 25.0467 24.5993C25.5385 25.136 25.634 25.9858 25.3967 26.6863C25.182 27.3185 24.7377 27.871 24.214 28.266Z" fill="#24FFAB"/>
  <path d="M24.181 28.233C24.1662 28.2458 24.1543 28.2616 24.1463 28.2794C24.1382 28.2972 24.1341 28.3165 24.1343 28.336C24.1344 28.3556 24.1389 28.3748 24.1472 28.3925C24.1556 28.4101 24.1677 28.4258 24.1827 28.4383C24.2207 28.4685 24.276 28.471 24.3217 28.483C24.3761 28.4969 24.4298 28.5136 24.4825 28.533C24.6997 28.6172 24.8975 28.7448 25.0637 28.908C25.3947 29.2293 25.6032 29.6635 25.6922 30.1128C25.7845 30.5827 25.748 31.0689 25.5865 31.5198C25.4404 31.9214 25.1942 32.2791 24.8712 32.559C24.5292 32.8553 24.1165 33.034 23.6735 33.116C23.4281 33.1584 23.1799 33.1821 22.931 33.1868C22.685 33.194 22.438 33.196 22.1922 33.1795C22.0655 33.1717 21.9393 33.1568 21.8142 33.135C21.7165 33.1173 21.632 33.085 21.5642 33.01C21.4928 32.927 21.4569 32.8193 21.4642 32.71L21.479 32.2518L21.526 30.7668C21.5483 30.0699 21.5705 29.3732 21.5925 28.6765C21.6255 27.6315 21.6495 26.5855 21.7147 25.5418C21.7307 25.287 21.7492 25.0328 21.7717 24.7785C21.7812 24.671 21.7737 24.5415 21.8287 24.4453C21.8862 24.3453 21.982 24.3203 22.086 24.288C22.5745 24.1428 23.0802 24.017 23.5937 24.038C24.0165 24.0545 24.4437 24.174 24.7862 24.4283C25.1195 24.6755 25.332 25.0443 25.422 25.4458C25.5097 25.85 25.4867 26.2705 25.3552 26.6628C25.2147 27.0843 24.9695 27.468 24.6685 27.7928C24.5219 27.951 24.3618 28.096 24.19 28.2263C24.1425 28.2623 24.19 28.3438 24.2372 28.3073C24.9372 27.7763 25.5055 26.9783 25.5622 26.0793C25.5887 25.6653 25.5095 25.236 25.3022 24.8738C25.088 24.4988 24.738 24.2303 24.3345 24.084C23.8935 23.9245 23.4185 23.9158 22.9595 23.9853C22.6964 24.0279 22.4364 24.0874 22.181 24.1635C22.0707 24.1953 21.94 24.216 21.8467 24.2868C21.7681 24.3469 21.716 24.4353 21.7017 24.5333C21.6835 24.6538 21.6767 24.7778 21.6677 24.8995C21.6567 25.032 21.6465 25.165 21.6372 25.2978C21.6189 25.5608 21.6033 25.824 21.5905 26.0875C21.5642 26.6165 21.5472 27.1458 21.5305 27.6753C21.5001 28.6313 21.4698 29.5872 21.4395 30.543L21.3972 31.871L21.3757 32.5513C21.374 32.6063 21.372 32.6613 21.3705 32.7163C21.3645 32.8403 21.4038 32.9622 21.4812 33.0593C21.6235 33.2343 21.8635 33.2453 22.0717 33.2653C22.3237 33.2861 22.5766 33.2925 22.8292 33.2845C23.334 33.2748 23.8477 33.2268 24.315 33.0228C25.1335 32.6655 25.6952 31.8638 25.8107 30.9865C25.9315 30.0698 25.5762 29.0085 24.7285 28.5463C24.6301 28.4925 24.5267 28.4483 24.4197 28.4145C24.367 28.398 24.3077 28.3923 24.2565 28.3728C24.2215 28.3593 24.2182 28.3245 24.2467 28.3C24.293 28.2598 24.2265 28.1938 24.181 28.233Z" fill="black"/>
  <path d="M23.2114 27.102C23.7449 27.227 23.9901 26.125 23.7779 25.762C23.5831 25.4292 23.2244 25.565 23.0779 25.8495C22.9199 26.157 22.7279 26.981 23.2061 27.0995L23.2114 27.102Z" fill="#511884"/>
  <path d="M23.2 27.1472C23.2572 27.1608 23.3166 27.1615 23.3741 27.1495C23.4316 27.1374 23.4858 27.1128 23.5327 27.0775C23.636 27.0005 23.7095 26.8895 23.763 26.7737C23.879 26.522 23.931 26.2217 23.888 25.9467C23.8665 25.8107 23.8077 25.6807 23.696 25.5947C23.562 25.492 23.385 25.504 23.246 25.5932C23.1145 25.6785 23.0372 25.8095 22.9815 25.952C22.9299 26.0851 22.8936 26.2237 22.8732 26.365C22.8365 26.6175 22.8362 26.9777 23.102 27.1117C23.1327 27.1273 23.1652 27.1392 23.1987 27.1472C23.2572 27.1615 23.2822 27.0722 23.2237 27.057C22.966 26.9942 22.9352 26.7002 22.9542 26.4737C22.9663 26.3405 22.9934 26.209 23.035 26.0817C23.072 25.9655 23.1147 25.848 23.1992 25.7552C23.29 25.6552 23.4292 25.5802 23.565 25.6285C23.6363 25.6578 23.6954 25.7107 23.7322 25.7785C23.7568 25.819 23.7742 25.8634 23.7837 25.9097C23.8084 26.0247 23.8142 26.1429 23.801 26.2597C23.7893 26.389 23.7611 26.5163 23.7172 26.6385C23.6796 26.7507 23.6202 26.8542 23.5422 26.9432C23.4742 27.0165 23.39 27.0667 23.2945 27.067C23.2703 27.0673 23.2462 27.0646 23.2227 27.0587C23.1652 27.0435 23.14 27.1337 23.2 27.1472Z" fill="black"/>
  <path d="M24.0228 30.991C24.0031 31.139 23.9623 31.2883 23.8746 31.406C23.7868 31.5238 23.6453 31.606 23.5036 31.587C23.3876 31.572 23.2856 31.493 23.2173 31.3935C23.0363 31.1288 23.0091 30.6935 23.0268 30.3848C23.0393 30.1678 23.1596 29.8185 23.3851 29.7565C23.5418 29.7135 23.7046 29.7763 23.8101 29.902C24.0406 30.1763 24.0686 30.645 24.0228 30.991Z" fill="#A7A8E1"/>
  <path d="M23.9775 30.9785C23.9555 31.1405 23.9103 31.3137 23.7898 31.4317C23.6795 31.5395 23.522 31.5787 23.3863 31.4947C23.2613 31.4177 23.1928 31.2762 23.1495 31.1417C23.1057 30.9969 23.0805 30.847 23.0745 30.6957C23.06 30.4387 23.07 30.1662 23.2198 29.9457C23.29 29.842 23.3898 29.7802 23.518 29.7912C23.668 29.8037 23.7783 29.9142 23.8493 30.0387C23.9293 30.1797 23.9685 30.3432 23.9853 30.5035C24.0014 30.6658 23.9986 30.8294 23.977 30.991C23.9771 31.0034 23.982 31.0154 23.9908 31.0242C23.9996 31.033 24.0116 31.0379 24.024 31.038C24.0363 31.0377 24.0481 31.0326 24.0568 31.0239C24.0655 31.0151 24.0705 31.0033 24.0708 30.991C24.1115 30.6787 24.0958 30.334 23.9585 30.046C23.8885 29.9002 23.7795 29.771 23.6218 29.7177C23.5504 29.693 23.4736 29.689 23.4 29.7061C23.3265 29.7232 23.2593 29.7608 23.2063 29.8145C23.1063 29.916 23.0473 30.0555 23.0123 30.1912C22.9773 30.327 22.9738 30.474 22.9775 30.6162C22.9796 30.784 23.0021 30.9509 23.0445 31.1132C23.0863 31.2647 23.154 31.424 23.2763 31.5285C23.3415 31.5866 23.4228 31.6235 23.5095 31.6342C23.5938 31.6413 23.6782 31.6219 23.751 31.5787C23.912 31.487 24.001 31.315 24.044 31.1402C24.0547 31.0951 24.0631 31.0495 24.069 31.0035C24.0719 30.9915 24.0701 30.9789 24.0641 30.9681C24.058 30.9574 24.048 30.9494 24.0363 30.9457C24.0302 30.944 24.0239 30.9434 24.0177 30.9441C24.0115 30.9448 24.0055 30.9467 24 30.9497C23.9945 30.9528 23.9897 30.9569 23.9858 30.9618C23.982 30.9668 23.9791 30.9724 23.9775 30.9785V30.9785Z" fill="black"/>
  <path d="M27.705 27.1345C28.0528 28.1165 28.221 29.0743 28.2978 30.104C28.3453 30.742 28.3413 31.673 27.6935 32.0278C27.1553 32.3225 26.5685 31.8913 26.2808 31.463C25.9408 30.9588 25.793 30.352 25.6728 29.7558C25.5253 29.0248 25.4088 28.2823 25.426 27.5363C25.433 27.2363 25.4625 26.9328 25.5703 26.6528C25.7408 26.2103 26.1678 25.841 26.6655 25.9113C27.275 25.9973 27.525 26.6228 27.705 27.1345Z" fill="#24FFAB"/>
  <path d="M27.2542 29.7215C27.2606 29.6354 27.2589 29.549 27.2489 29.4632C27.2072 29.0357 27.1684 28.5647 27.0377 28.1535C26.9754 27.9585 26.8584 27.536 26.5834 27.5935C26.2722 27.6582 26.3562 28.2705 26.3689 28.489C26.3923 28.8902 26.4798 29.285 26.6279 29.6585C26.6869 29.8062 26.8092 30.0397 27.0029 30.0277C27.1802 30.0167 27.2394 29.875 27.2542 29.7215Z" fill="#A7A8E1"/>
  <path d="M27.3014 29.7215C27.3124 29.5965 27.2969 29.4715 27.2849 29.3482C27.2729 29.225 27.2599 29.0982 27.2456 28.9732C27.2198 28.7229 27.1744 28.475 27.1099 28.2317C27.0664 28.077 27.0189 27.9162 26.9414 27.7747C26.8684 27.641 26.7494 27.52 26.5846 27.5467C26.4409 27.57 26.3636 27.6997 26.3319 27.8307C26.2959 27.9782 26.2989 28.1342 26.3069 28.2847C26.3174 28.4622 26.3296 28.6402 26.3546 28.8162C26.3916 29.0746 26.4552 29.3285 26.5446 29.5737C26.6061 29.7415 26.6829 29.9457 26.8481 30.0382C26.8889 30.0607 26.9343 30.0733 26.9807 30.0752C27.0272 30.077 27.0735 30.0681 27.1159 30.049C27.1547 30.0298 27.1889 30.0025 27.2164 29.9691C27.2439 29.9356 27.264 29.8968 27.2754 29.855C27.2882 29.8118 27.2966 29.7674 27.3004 29.7225C27.2995 29.7106 27.2942 29.6996 27.2855 29.6915C27.2768 29.6834 27.2654 29.6789 27.2535 29.6789C27.2416 29.6789 27.2302 29.6834 27.2215 29.6915C27.2128 29.6996 27.2075 29.7106 27.2066 29.7225C27.1991 29.7935 27.1816 29.8725 27.1316 29.926C27.1049 29.9519 27.0714 29.9699 27.035 29.9778C26.9986 29.9858 26.9607 29.9834 26.9256 29.971C26.8539 29.946 26.8006 29.8802 26.7604 29.8182C26.7166 29.7472 26.6803 29.6718 26.6521 29.5932C26.5664 29.3674 26.5028 29.1338 26.4621 28.8957C26.4314 28.716 26.4191 28.5347 26.4059 28.3532C26.392 28.2161 26.392 28.0779 26.4059 27.9407C26.4201 27.832 26.4536 27.6987 26.5559 27.6522C26.6754 27.5982 26.7809 27.6915 26.8414 27.7922C26.9126 27.9095 26.9519 28.0422 26.9929 28.173C27.0598 28.396 27.1075 28.6243 27.1356 28.8555C27.1659 29.083 27.1926 29.3132 27.2071 29.5422C27.2116 29.6025 27.2116 29.663 27.2071 29.7232C27.2021 29.7817 27.2959 29.7812 27.3014 29.7215Z" fill="black"/>
  <path d="M27.6599 27.147C27.8468 27.6779 27.9901 28.2232 28.0884 28.7775C28.1369 29.0505 28.1758 29.3247 28.2051 29.6002C28.2301 29.8407 28.2551 30.082 28.2639 30.3237C28.2799 30.7017 28.2659 31.0987 28.1231 31.4542C28.0574 31.6244 27.9501 31.7754 27.8109 31.8932C27.729 31.9626 27.6336 32.0142 27.5307 32.0447C27.4279 32.0753 27.3198 32.0841 27.2134 32.0707C26.9859 32.039 26.7776 31.915 26.6079 31.7647C26.431 31.6028 26.2846 31.4104 26.1759 31.1967C25.9259 30.7275 25.8091 30.201 25.7061 29.6835C25.5909 29.106 25.4971 28.5225 25.4759 27.9335C25.4656 27.649 25.4651 27.3585 25.5091 27.077C25.5469 26.834 25.6196 26.5955 25.7629 26.3932C25.8836 26.2225 26.0526 26.077 26.2501 26.0037C26.4486 25.93 26.6675 25.9331 26.8639 26.0122C27.2276 26.1585 27.4254 26.5407 27.5624 26.885C27.5969 26.9715 27.6289 27.06 27.6599 27.1472C27.6799 27.2037 27.7706 27.1795 27.7504 27.1222C27.6181 26.7495 27.4674 26.3382 27.1524 26.0787C26.9902 25.9438 26.7882 25.8658 26.5774 25.8567C26.3534 25.8512 26.1344 25.923 25.9571 26.06C25.7768 26.1974 25.6352 26.3794 25.5464 26.588C25.4349 26.8485 25.3964 27.1342 25.3831 27.4152C25.3549 28.0217 25.4234 28.6302 25.5256 29.2272C25.5756 29.516 25.6309 29.8045 25.6959 30.0902C25.7533 30.3563 25.8302 30.6177 25.9259 30.8725C26.1066 31.339 26.3849 31.7997 26.8399 32.042C27.0491 32.1532 27.2914 32.2065 27.5246 32.1457C27.7276 32.0927 27.9076 31.9602 28.0354 31.7957C28.2824 31.4775 28.3481 31.0542 28.3604 30.6622C28.3649 30.4704 28.3592 30.2785 28.3434 30.0872C28.3214 29.7972 28.2916 29.5082 28.2521 29.2202C28.1753 28.6472 28.0522 28.0814 27.8841 27.5282C27.8424 27.3922 27.7979 27.2572 27.7504 27.123C27.7304 27.0655 27.6396 27.09 27.6599 27.147Z" fill="black"/>
  <path d="M35.1133 31.413C35.1033 31.403 35.0913 31.3953 35.0782 31.3902C35.065 31.3851 35.0509 31.3827 35.0368 31.3833C35.0227 31.384 35.0089 31.3875 34.9963 31.3937C34.9836 31.3999 34.9724 31.4087 34.9633 31.4195C34.7903 31.6195 34.6035 31.8138 34.371 31.9373C34.107 32.0775 33.771 32.1123 33.5168 31.9543C33.2708 31.7998 33.1553 31.5043 33.0733 31.2223C32.7058 29.962 32.6983 28.6175 32.8675 27.315C32.8925 27.1205 32.9235 26.9225 33.0135 26.7488C33.1035 26.575 33.2635 26.4273 33.4568 26.4043C33.7123 26.374 33.9505 26.5733 34.0538 26.8113C34.157 27.0493 34.1558 27.3185 34.1538 27.5783C34.1464 28.2008 34.1391 28.8233 34.1318 29.4458C34.1318 29.5458 34.13 29.6495 34.1678 29.7423C34.2055 29.835 34.2928 29.9153 34.3908 29.913C34.474 29.911 34.5478 29.8518 34.5895 29.779C34.6313 29.7063 34.6468 29.6215 34.6595 29.5385C34.7938 28.6708 34.7213 27.7565 35.0473 26.9425C35.1138 26.7763 35.1973 26.6138 35.3263 26.49C35.4553 26.3663 35.6315 26.285 35.8075 26.306C36.0863 26.3393 36.2798 26.6088 36.3693 26.8778C36.541 27.3943 36.4595 27.958 36.3645 28.4943C36.2695 29.0305 36.1645 29.585 36.2908 30.1145C36.36 30.403 36.4968 30.673 36.5505 30.9645C36.6043 31.256 36.5538 31.598 36.3188 31.7763C36.1253 31.923 35.8515 31.9205 35.6263 31.831C35.4338 31.7553 35.2698 31.5675 35.1133 31.413Z" fill="#24FFAB"/>
  <path d="M35.1463 31.38C35.1319 31.3661 35.1149 31.3552 35.0962 31.348C35.0775 31.3408 35.0576 31.3374 35.0376 31.338C35.0176 31.3386 34.9979 31.3432 34.9797 31.3515C34.9615 31.3599 34.9451 31.3718 34.9316 31.3865C34.8666 31.456 34.8066 31.5293 34.7388 31.5965C34.6098 31.726 34.4658 31.8435 34.2993 31.9215C34.1431 31.997 33.9686 32.0262 33.7963 32.0055C33.631 31.9816 33.4808 31.8958 33.3763 31.7655C33.2721 31.639 33.2073 31.4825 33.1563 31.3283C33.0956 31.1445 33.0481 30.9555 33.0063 30.7668C32.9173 30.3658 32.8588 29.9588 32.8313 29.549C32.804 29.1394 32.8014 28.7285 32.8233 28.3185C32.8338 28.1125 32.8496 27.9068 32.8708 27.7013C32.8911 27.5013 32.9106 27.2993 32.9488 27.1013C32.9828 26.9263 33.0398 26.7498 33.1631 26.6165C33.2691 26.502 33.4211 26.424 33.5801 26.4538C33.7391 26.4835 33.8696 26.5923 33.9551 26.7235C34.0551 26.8783 34.0908 27.0658 34.1026 27.2485C34.1156 27.4535 34.1063 27.6603 34.1038 27.8655L34.0963 28.519L34.0886 29.1725C34.0886 29.2788 34.0851 29.385 34.0848 29.4913C34.0848 29.5875 34.0913 29.686 34.1311 29.775C34.165 29.8524 34.2278 29.9136 34.3061 29.9455C34.3447 29.9593 34.3862 29.9632 34.4267 29.9567C34.4672 29.9501 34.5055 29.9335 34.5378 29.9083C34.6943 29.7913 34.7051 29.5713 34.7281 29.3935C34.7781 29.0005 34.7946 28.6043 34.8303 28.2098C34.8658 27.819 34.9226 27.4268 35.0553 27.0558C35.1166 26.8848 35.1921 26.7108 35.3136 26.573C35.4301 26.4408 35.5968 26.3413 35.7778 26.351C35.9336 26.3593 36.0656 26.4568 36.1591 26.576C36.2631 26.7078 36.3246 26.867 36.3643 27.0288C36.4611 27.4208 36.4248 27.832 36.3643 28.2263C36.3006 28.6358 36.2073 29.0418 36.1893 29.457C36.1787 29.6644 36.194 29.8724 36.2348 30.076C36.2763 30.2728 36.3516 30.4595 36.4161 30.6493C36.5193 30.954 36.5993 31.3208 36.4108 31.6115C36.2223 31.9023 35.8081 31.9045 35.5388 31.7343C35.3888 31.64 35.2718 31.504 35.1473 31.3813C35.1043 31.3388 35.0381 31.4063 35.0811 31.4475C35.2126 31.5773 35.3378 31.7193 35.4956 31.818C35.647 31.91 35.8233 31.9526 36.0001 31.9398C36.0847 31.9355 36.1677 31.9142 36.2439 31.8771C36.3202 31.8401 36.3882 31.788 36.4438 31.724C36.5476 31.599 36.5978 31.4418 36.6133 31.2818C36.6511 30.8945 36.4588 30.543 36.3571 30.1818C36.2418 29.7705 36.2751 29.3395 36.3401 28.923C36.4051 28.5065 36.4991 28.096 36.5151 27.675C36.5248 27.4709 36.5093 27.2664 36.4691 27.066C36.4321 26.891 36.3726 26.7193 36.2711 26.5718C36.1801 26.4395 36.0556 26.3245 35.8988 26.2788C35.7226 26.2288 35.5333 26.2788 35.3868 26.3825C35.2328 26.4925 35.1268 26.6538 35.0493 26.824C34.9683 27.005 34.9051 27.1935 34.8608 27.3868C34.7676 27.7795 34.7358 28.1838 34.7071 28.5853C34.6923 28.7878 34.6783 28.9903 34.6571 29.1923C34.6466 29.2923 34.6346 29.3943 34.6198 29.4948C34.6058 29.588 34.5948 29.6885 34.5421 29.7698C34.5008 29.8345 34.4256 29.8858 34.3468 29.8625C34.2681 29.8393 34.2198 29.764 34.1988 29.6905C34.1711 29.5923 34.1786 29.487 34.1798 29.386L34.1836 29.056L34.1993 27.724C34.2038 27.3443 34.2348 26.909 33.9758 26.599C33.8706 26.4725 33.7228 26.3783 33.5576 26.3608C33.3871 26.3425 33.2231 26.4235 33.1076 26.5443C32.9776 26.679 32.9076 26.8565 32.8686 27.037C32.8251 27.237 32.8056 27.443 32.7841 27.646C32.7387 28.0643 32.716 28.4848 32.7161 28.9055C32.7162 29.3253 32.7449 29.7446 32.8018 30.1605C32.8578 30.5638 32.9391 30.9698 33.0671 31.3568C33.1203 31.5183 33.1881 31.6775 33.2921 31.8125C33.3966 31.9502 33.5457 32.0473 33.7138 32.0875C34.0851 32.1725 34.4463 31.9943 34.7161 31.7505C34.7849 31.6879 34.8505 31.6218 34.9126 31.5525C34.9423 31.5198 34.9696 31.4833 35.0011 31.4525C35.006 31.447 35.012 31.4426 35.0187 31.4394C35.0254 31.4363 35.0326 31.4345 35.04 31.4342C35.0474 31.4339 35.0548 31.4351 35.0617 31.4377C35.0686 31.4403 35.0749 31.4442 35.0803 31.4493C35.1251 31.4868 35.1913 31.4205 35.1463 31.38Z" fill="black"/>
  <path d="M18.2649 15.2382C18.2572 15.2383 18.2495 15.2363 18.2427 15.2325C18.232 15.2266 18.224 15.2167 18.2206 15.2049C18.2172 15.1931 18.2186 15.1805 18.2244 15.1697C18.4244 14.8092 18.7942 14.5645 19.1917 14.5312C19.5949 14.4977 20.0817 14.702 20.1902 15.1472C20.192 15.1532 20.1925 15.1595 20.1917 15.1657C20.191 15.1719 20.189 15.1779 20.1859 15.1833C20.1828 15.1888 20.1786 15.1935 20.1736 15.1972C20.1686 15.201 20.1629 15.2037 20.1568 15.2052C20.1508 15.2067 20.1444 15.2069 20.1383 15.2059C20.1321 15.2049 20.1262 15.2026 20.121 15.1993C20.1157 15.1959 20.1112 15.1915 20.1076 15.1864C20.1041 15.1812 20.1017 15.1754 20.1004 15.1692C20.0039 14.7737 19.5642 14.5942 19.2004 14.6235C18.8367 14.6527 18.4907 14.8807 18.3064 15.2145C18.3023 15.2219 18.2963 15.228 18.289 15.2322C18.2817 15.2363 18.2734 15.2384 18.2649 15.2382V15.2382Z" fill="black"/>
  <path d="M18.1777 21.1823C18.156 21.1823 18.1432 21.1823 18.1405 21.1823C18.1344 21.182 18.1285 21.1805 18.123 21.1779C18.1175 21.1753 18.1125 21.1716 18.1084 21.1671C18.1044 21.1626 18.1012 21.1574 18.0991 21.1516C18.0971 21.1459 18.0962 21.1398 18.0965 21.1338C18.0968 21.1277 18.0983 21.1217 18.1009 21.1162C18.1035 21.1107 18.1071 21.1058 18.1116 21.1017C18.1161 21.0976 18.1214 21.0945 18.1271 21.0924C18.1328 21.0904 18.1389 21.0895 18.145 21.0898C18.448 21.0892 18.7474 21.0238 19.023 20.898C19.6425 20.618 20.0575 20.087 20.2565 19.3195C20.2598 19.3079 20.2675 19.2981 20.278 19.2921C20.2885 19.2861 20.3009 19.2845 20.3126 19.2875C20.3243 19.2905 20.3343 19.298 20.3405 19.3083C20.3468 19.3187 20.3487 19.331 20.346 19.3428C20.0882 20.3363 19.503 20.7838 19.0572 20.984C18.7806 21.1092 18.4813 21.1767 18.1777 21.1823V21.1823Z" fill="black"/>
  <path d="M14.9287 21.75C14.613 21.7487 14.2999 21.6922 14.0037 21.5832C13.9927 21.5783 13.9841 21.5694 13.9797 21.5583C13.9752 21.5473 13.9752 21.5349 13.9797 21.5238C13.9841 21.5127 13.9927 21.5037 14.0036 21.4988C14.0145 21.4939 14.0269 21.4935 14.0382 21.4975C14.3425 21.6079 14.6644 21.6618 14.9882 21.6567C15.6707 21.6392 16.1704 21.322 16.4739 20.7137C16.4765 20.7081 16.4802 20.7031 16.4848 20.6989C16.4894 20.6948 16.4947 20.6916 16.5006 20.6895C16.5064 20.6875 16.5126 20.6866 16.5188 20.687C16.5249 20.6874 16.531 20.689 16.5365 20.6918C16.542 20.6945 16.547 20.6984 16.551 20.7031C16.555 20.7078 16.5581 20.7132 16.5599 20.7191C16.5618 20.725 16.5625 20.7312 16.5619 20.7374C16.5614 20.7436 16.5596 20.7495 16.5567 20.755C16.1567 21.555 15.4832 21.7372 14.9877 21.7495L14.9287 21.75Z" fill="black"/>
  <path d="M11.7542 13.1297C11.7431 13.1298 11.7324 13.1258 11.724 13.1185C11.1928 12.6594 10.7668 12.0913 10.4748 11.4529C10.1828 10.8144 10.0318 10.1206 10.032 9.4185C10.032 6.72225 12.2255 4.52875 14.9217 4.52875C15.8713 4.529 16.8002 4.80548 17.5954 5.32449C18.3906 5.84349 19.0176 6.58261 19.4 7.45175C19.4049 7.46299 19.4052 7.47573 19.4007 7.48717C19.3963 7.49861 19.3875 7.50781 19.3762 7.51275C19.365 7.51769 19.3523 7.51796 19.3408 7.51351C19.3294 7.50905 19.3202 7.50024 19.3152 7.489C18.9399 6.63645 18.3248 5.91147 17.5447 5.40241C16.7646 4.89336 15.8532 4.6222 14.9217 4.622C12.2765 4.622 10.125 6.775 10.125 9.41925C10.1249 10.1079 10.2731 10.7885 10.5595 11.4147C10.846 12.041 11.2639 12.5982 11.785 13.0485C11.7896 13.0524 11.7934 13.0573 11.7962 13.0627C11.7989 13.0681 11.8005 13.0741 11.801 13.0801C11.8014 13.0862 11.8007 13.0923 11.7987 13.0981C11.7968 13.1038 11.7937 13.1092 11.7897 13.1137C11.7854 13.1189 11.7799 13.123 11.7738 13.1258C11.7676 13.1285 11.761 13.1299 11.7542 13.1297V13.1297Z" fill="black"/>
  <path d="M18.108 13.1132C18.0986 13.1132 18.0895 13.1103 18.0818 13.1049C18.0741 13.0995 18.0682 13.092 18.0649 13.0832C18.0617 13.0744 18.0611 13.0648 18.0634 13.0557C18.0657 13.0466 18.0707 13.0384 18.0777 13.0322C18.7342 12.4591 19.2222 11.7181 19.4895 10.8887C19.4933 10.877 19.5015 10.8673 19.5125 10.8617C19.5234 10.8561 19.5362 10.8551 19.5479 10.8589C19.5596 10.8627 19.5693 10.8709 19.5749 10.8819C19.5805 10.8928 19.5815 10.9055 19.5777 10.9172C19.3051 11.7625 18.8076 12.5177 18.1385 13.1017C18.1301 13.1092 18.1192 13.1133 18.108 13.1132V13.1132Z" fill="black"/>
  <path d="M14.6443 13.387C16.9164 13.387 18.7583 11.5994 18.7583 9.39424C18.7583 7.1891 16.9164 5.40149 14.6443 5.40149C12.3722 5.40149 10.5303 7.1891 10.5303 9.39424C10.5303 11.5994 12.3722 13.387 14.6443 13.387Z" fill="black"/>
  <path d="M10.9109 15.009L10.8296 14.075C10.8296 14.075 10.7279 13.7453 10.9296 13.5183C11.1314 13.2913 10.8774 13.0733 13.5776 12.9698C16.2779 12.8663 17.4339 12.6653 17.4339 12.6653C17.4339 12.6653 18.0481 12.7525 18.1089 13.127C18.1696 13.5015 18.5604 18.3618 18.5604 18.3618C18.5604 18.3618 18.6674 19.0693 17.7176 19.146L12.0704 19.6035C12.0704 19.6035 11.5789 19.6385 11.3896 19.3103C11.2004 18.982 11.1591 18.1525 11.1591 18.1525L10.9109 15.009Z" fill="#FF5F82"/>
  <path d="M15.0019 19.412C14.9905 19.412 14.9795 19.4078 14.971 19.4001C14.9625 19.3924 14.9571 19.3819 14.9559 19.3705L14.2847 12.903C14.2834 12.8908 14.287 12.8786 14.2947 12.869C14.3024 12.8595 14.3136 12.8534 14.3258 12.8521C14.338 12.8508 14.3502 12.8544 14.3598 12.8622C14.3693 12.8699 14.3754 12.881 14.3767 12.8932L15.0479 19.3608C15.049 19.3728 15.0452 19.3848 15.0375 19.3942C15.0298 19.4035 15.0187 19.4095 15.0067 19.4108L15.0019 19.412Z" fill="black"/>
  <path d="M10.8908 14.8795C10.8791 14.8792 10.8679 14.8744 10.8596 14.8661C10.8513 14.8578 10.8464 14.8466 10.846 14.8349C10.8456 14.8232 10.8496 14.8117 10.8574 14.8029C10.8651 14.794 10.8759 14.7884 10.8876 14.7873L18.2336 14.2685C18.2397 14.2679 18.2459 14.2686 18.2518 14.2705C18.2576 14.2723 18.2631 14.2753 18.2678 14.2793C18.2725 14.2833 18.2763 14.2882 18.2791 14.2937C18.2819 14.2992 18.2835 14.3052 18.284 14.3113C18.2844 14.3175 18.2836 14.3236 18.2816 14.3294C18.2796 14.3353 18.2765 14.3407 18.2724 14.3453C18.2683 14.3499 18.2634 14.3536 18.2578 14.3563C18.2523 14.3589 18.2462 14.3605 18.2401 14.3608L10.8941 14.8795H10.8908Z" fill="black"/>
  <path d="M18.3314 15.5295C18.3198 15.5295 18.3086 15.5252 18.3001 15.5173C18.2916 15.5094 18.2863 15.4986 18.2854 15.487L18.1157 13.3935C18.0998 13.1966 18.0063 13.0141 17.8558 12.8861C17.7053 12.7581 17.5101 12.6951 17.3132 12.711L11.5499 13.178C11.4524 13.1859 11.3574 13.2129 11.2704 13.2574C11.1833 13.302 11.1059 13.3633 11.0425 13.4379C10.9792 13.5124 10.9311 13.5987 10.9011 13.6918C10.8711 13.7849 10.8598 13.883 10.8677 13.9805L10.9452 14.9385C10.9462 14.9507 10.9423 14.9629 10.9343 14.9722C10.9264 14.9816 10.9151 14.9874 10.9028 14.9884C10.8906 14.9894 10.8785 14.9855 10.8691 14.9775C10.8598 14.9696 10.8539 14.9582 10.8529 14.946L10.7749 13.988C10.757 13.7667 10.8278 13.5473 10.9716 13.3781C11.1155 13.2089 11.3206 13.1037 11.5419 13.0858L17.3047 12.619C17.4143 12.6101 17.5246 12.6228 17.6293 12.6566C17.734 12.6903 17.831 12.7443 17.9148 12.8155C17.9986 12.8868 18.0675 12.9738 18.1176 13.0717C18.1678 13.1696 18.1981 13.2764 18.2069 13.386L18.3764 15.4795C18.377 15.4856 18.3763 15.4917 18.3744 15.4975C18.3726 15.5032 18.3696 15.5086 18.3657 15.5133C18.3618 15.5179 18.357 15.5217 18.3516 15.5245C18.3462 15.5273 18.3403 15.529 18.3342 15.5295H18.3314Z" fill="black"/>
  <path d="M12.0066 19.6518C11.7963 19.6515 11.5939 19.5721 11.4394 19.4296C11.2849 19.287 11.1897 19.0915 11.1726 18.882L11.0771 17.7043C11.0761 17.692 11.08 17.6799 11.0879 17.6706C11.0959 17.6612 11.1072 17.6554 11.1194 17.6544C11.1317 17.6534 11.1438 17.6573 11.1531 17.6652C11.1625 17.6732 11.1683 17.6845 11.1693 17.6968L11.2646 18.8745C11.2808 19.0713 11.3744 19.2537 11.5249 19.3816C11.6754 19.5096 11.8704 19.5726 12.0673 19.557L17.8301 19.0903C18.027 19.0743 18.2095 18.9807 18.3374 18.8302C18.4654 18.6796 18.5283 18.4844 18.5123 18.2875L18.4993 18.1265C18.4988 18.1205 18.4996 18.1144 18.5014 18.1086C18.5033 18.1028 18.5063 18.0975 18.5103 18.0928C18.5142 18.0882 18.519 18.0844 18.5244 18.0817C18.5298 18.0789 18.5357 18.0772 18.5418 18.0768C18.5479 18.0763 18.554 18.077 18.5597 18.0789C18.5655 18.0808 18.5709 18.0838 18.5755 18.0877C18.5801 18.0917 18.5839 18.0965 18.5867 18.1019C18.5894 18.1073 18.5911 18.1132 18.5916 18.1193L18.6046 18.28C18.6225 18.5014 18.5517 18.7208 18.4079 18.89C18.264 19.0591 18.0589 19.1643 17.8376 19.1823L12.0751 19.65C12.0518 19.65 12.0291 19.6518 12.0066 19.6518Z" fill="black"/>
  <path d="M14.4156 12.8515C14.3201 12.4747 14.3152 12.0806 14.4014 11.7015C14.4741 11.3895 14.6384 11.063 14.9651 10.96C15.1101 10.9142 15.2689 10.9217 15.3984 11.0057C15.5161 11.0807 15.5931 11.21 15.6286 11.3435C15.7149 11.6685 15.5394 11.9912 15.3266 12.2262C15.0705 12.5079 14.7418 12.7138 14.3766 12.8212C14.3189 12.8382 14.3434 12.9287 14.4016 12.9115C14.7522 12.8083 15.0712 12.6185 15.3291 12.3595C15.5761 12.1095 15.7881 11.771 15.7364 11.4057C15.7157 11.2482 15.6428 11.1021 15.5294 10.9907C15.4698 10.9349 15.3989 10.8925 15.3215 10.8667C15.2441 10.8408 15.162 10.8319 15.0809 10.8407C14.9102 10.86 14.7508 10.9358 14.6281 11.056C14.4981 11.1825 14.4119 11.3475 14.3551 11.5182C14.2948 11.7067 14.2595 11.9023 14.2501 12.1C14.2388 12.3093 14.2529 12.5191 14.2921 12.725C14.3016 12.775 14.3126 12.825 14.3251 12.875C14.3399 12.9332 14.4304 12.9085 14.4156 12.85V12.8515Z" fill="white"/>
  <path d="M14.378 12.8082C14.3496 12.5984 14.3088 12.3905 14.2557 12.1855C14.21 11.9928 14.1453 11.805 14.0627 11.625C13.9127 11.3155 13.634 11.027 13.2697 11.016C13.104 11.0088 12.9423 11.0675 12.8197 11.1792C12.6965 11.2975 12.641 11.4712 12.6447 11.6392C12.653 12.0117 12.9352 12.3142 13.2175 12.524C13.5111 12.7407 13.8554 12.8784 14.2175 12.924C14.2617 12.9297 14.3062 12.9337 14.3507 12.9365C14.411 12.9405 14.4107 12.8467 14.3507 12.8427C14.0116 12.8205 13.6835 12.7137 13.3962 12.5322C13.2501 12.4418 13.1169 12.3322 13 12.2062C12.8875 12.0835 12.7925 11.9387 12.7537 11.775C12.718 11.625 12.7345 11.455 12.82 11.323C12.9 11.1992 13.0417 11.1267 13.1862 11.1127C13.5197 11.0802 13.792 11.3245 13.9432 11.599C14.0432 11.779 14.1027 11.978 14.1555 12.1757C14.213 12.3918 14.2569 12.6114 14.2867 12.833C14.29 12.845 14.298 12.8552 14.3088 12.8613C14.3196 12.8675 14.3325 12.869 14.3445 12.8657C14.3562 12.8621 14.3662 12.8542 14.3722 12.8435C14.3783 12.8328 14.3801 12.8202 14.3772 12.8082H14.378Z" fill="white"/>
  <path d="M26.1921 14.572C26.1623 14.572 26.1336 14.5602 26.1125 14.5391C26.0914 14.518 26.0796 14.4893 26.0796 14.4595V13.2555C26.0796 13.2257 26.0914 13.1971 26.1125 13.176C26.1336 13.1549 26.1623 13.143 26.1921 13.143C26.2219 13.143 26.2505 13.1549 26.2716 13.176C26.2927 13.1971 26.3046 13.2257 26.3046 13.2555V14.4595C26.3046 14.4743 26.3017 14.4889 26.2961 14.5026C26.2904 14.5163 26.2822 14.5287 26.2717 14.5391C26.2613 14.5496 26.2488 14.5579 26.2352 14.5635C26.2215 14.5692 26.2069 14.572 26.1921 14.572Z" fill="white"/>
  <path d="M26.7433 13.97H25.6408C25.611 13.97 25.5824 13.9581 25.5613 13.937C25.5402 13.9159 25.5283 13.8873 25.5283 13.8575C25.5283 13.8277 25.5402 13.799 25.5613 13.7779C25.5824 13.7568 25.611 13.745 25.6408 13.745H26.7433C26.7732 13.745 26.8018 13.7568 26.8229 13.7779C26.844 13.799 26.8558 13.8277 26.8558 13.8575C26.8558 13.8873 26.844 13.9159 26.8229 13.937C26.8018 13.9581 26.7732 13.97 26.7433 13.97V13.97Z" fill="white"/>
  <path d="M24.5974 15.5887C24.5826 15.5888 24.5679 15.5859 24.5543 15.5802C24.5406 15.5746 24.5282 15.5663 24.5177 15.5559C24.5073 15.5454 24.499 15.533 24.4934 15.5193C24.4877 15.5057 24.4848 15.491 24.4849 15.4762V14.7027C24.4849 14.6729 24.4967 14.6443 24.5178 14.6232C24.5389 14.6021 24.5675 14.5902 24.5974 14.5902C24.6272 14.5902 24.6558 14.6021 24.6769 14.6232C24.698 14.6443 24.7099 14.6729 24.7099 14.7027V15.4762C24.7099 15.5061 24.698 15.5347 24.6769 15.5558C24.6558 15.5769 24.6272 15.5887 24.5974 15.5887Z" fill="white"/>
  <path d="M24.9516 15.202H24.2431C24.2133 15.202 24.1847 15.1901 24.1636 15.169C24.1425 15.1479 24.1306 15.1193 24.1306 15.0895C24.1306 15.0597 24.1425 15.031 24.1636 15.0099C24.1847 14.9888 24.2133 14.977 24.2431 14.977H24.9516C24.9815 14.977 25.0101 14.9888 25.0312 15.0099C25.0523 15.031 25.0641 15.0597 25.0641 15.0895C25.0641 15.1193 25.0523 15.1479 25.0312 15.169C25.0101 15.1901 24.9815 15.202 24.9516 15.202Z" fill="white"/>
  <path d="M21.3376 12.9128C21.3224 12.8743 21.3118 12.8342 21.3061 12.7933L21.3079 12.8065C21.3054 12.7866 21.3039 12.7666 21.3034 12.7465C21.3034 12.7332 21.2981 12.7205 21.2887 12.7111C21.2793 12.7018 21.2666 12.6965 21.2534 12.6965C21.2401 12.6965 21.2274 12.7018 21.218 12.7111C21.2086 12.7205 21.2034 12.7332 21.2034 12.7465C21.2043 12.8125 21.2171 12.8778 21.2411 12.9393C21.2451 12.9516 21.2532 12.9622 21.2641 12.9693C21.2698 12.9726 21.2761 12.9748 21.2826 12.9756C21.2891 12.9765 21.2957 12.9761 21.3021 12.9745C21.3085 12.9728 21.3144 12.9699 21.3197 12.9659C21.3249 12.9619 21.3293 12.9569 21.3326 12.9513C21.3361 12.9455 21.3383 12.9392 21.3391 12.9325C21.34 12.9259 21.3395 12.9192 21.3376 12.9128V12.9128Z" fill="#3C3C3B"/>
  <path d="M21.2167 12.8793C21.2167 12.8945 21.2144 12.9098 21.2124 12.925L21.2142 12.9115C21.2101 12.941 21.2037 12.9702 21.1952 12.9988C21.1934 13.0051 21.1929 13.0117 21.1937 13.0182C21.1946 13.0248 21.1967 13.031 21.1999 13.0368C21.2032 13.0425 21.2075 13.0475 21.2127 13.0515C21.2179 13.0556 21.2238 13.0585 21.2302 13.0603C21.2429 13.0634 21.2564 13.0615 21.2679 13.055C21.2793 13.0485 21.2878 13.0378 21.2917 13.0253C21.3057 12.9777 21.3141 12.9287 21.3167 12.8793C21.3167 12.866 21.3114 12.8533 21.302 12.8439C21.2926 12.8345 21.2799 12.8293 21.2667 12.8293C21.2534 12.8293 21.2407 12.8345 21.2313 12.8439C21.2219 12.8533 21.2167 12.866 21.2167 12.8793V12.8793Z" fill="#3C3C3B"/>
  <path d="M11.3955 9.38925C11.3977 9.3025 11.4037 9.21575 11.4135 9.1295L11.4172 9.099C11.4176 9.09321 11.4182 9.08745 11.4192 9.08175C11.4192 9.08175 11.4157 9.10675 11.4177 9.09325C11.4209 9.07025 11.4244 9.04725 11.4282 9.02425C11.435 8.98275 11.4425 8.9415 11.451 8.89925C11.4851 8.73302 11.5331 8.56995 11.5945 8.41175C11.6017 8.39325 11.6092 8.3745 11.6167 8.356C11.6197 8.349 11.636 8.3145 11.6207 8.34625C11.6257 8.336 11.6297 8.32525 11.6342 8.31475C11.651 8.277 11.6682 8.23975 11.6865 8.202C11.7232 8.1265 11.7628 8.05233 11.8055 7.9795C11.8482 7.90666 11.8935 7.83583 11.9415 7.767C11.9665 7.73175 11.9915 7.69725 12.0165 7.663L12.0347 7.638C12.048 7.6205 12.021 7.6555 12.0387 7.633C12.052 7.616 12.0652 7.59925 12.0787 7.583C12.1851 7.45293 12.3009 7.33078 12.425 7.2175C12.4882 7.15975 12.5537 7.104 12.6212 7.051C12.628 7.0455 12.635 7.0405 12.6415 7.035C12.6152 7.05725 12.6445 7.03275 12.6502 7.0285C12.6675 7.0155 12.6845 7.0035 12.702 6.99C12.7353 6.9655 12.7693 6.94166 12.804 6.9185C12.944 6.82364 13.0908 6.73916 13.2432 6.66575C13.2822 6.647 13.3212 6.629 13.3607 6.612C13.37 6.60775 13.3792 6.604 13.3885 6.6C13.4042 6.59325 13.3665 6.609 13.3822 6.6025L13.3942 6.5975C13.4155 6.58875 13.4367 6.58025 13.4582 6.5725C13.5361 6.54217 13.6147 6.51483 13.6942 6.4905C13.8586 6.44093 14.0265 6.40383 14.1965 6.3795C14.2107 6.37725 14.1845 6.381 14.1847 6.381C14.1902 6.37975 14.1965 6.3795 14.202 6.37875L14.2322 6.375L14.297 6.368C14.3405 6.364 14.384 6.3605 14.4275 6.35825C14.5318 6.35287 14.6364 6.35287 14.7407 6.35825C14.8 6.36075 14.8595 6.36525 14.9185 6.37125C14.9837 6.378 15.0465 6.30925 15.0435 6.24625C15.0402 6.173 14.9885 6.1285 14.9185 6.12125C14.5265 6.0824 14.1308 6.11407 13.75 6.21475C13.4074 6.30603 13.0805 6.44838 12.7802 6.637C12.4819 6.82335 12.2124 7.05226 11.9802 7.3165C11.7469 7.58046 11.5559 7.87901 11.414 8.2015C11.2676 8.53578 11.1792 8.89254 11.1525 9.2565C11.1495 9.30075 11.1475 9.345 11.1462 9.38925C11.1462 9.4224 11.1594 9.45419 11.1829 9.47764C11.2063 9.50108 11.2381 9.51425 11.2712 9.51425C11.3042 9.51361 11.3356 9.50023 11.3589 9.47693C11.3822 9.45362 11.3956 9.4222 11.3962 9.38925H11.3955Z" fill="white"/>
  <path d="M17.45 15.95C17.4959 16.0379 17.5505 16.121 17.613 16.198C17.6298 16.2202 17.6553 16.2365 17.659 16.2662C17.6599 16.2815 17.6573 16.2967 17.6514 16.3108C17.6455 16.3249 17.6365 16.3374 17.625 16.3475C17.6063 16.3613 17.5867 16.3738 17.5663 16.3847C17.5508 16.396 17.5468 16.4055 17.5295 16.4135C17.5045 16.4248 17.481 16.439 17.4595 16.456C17.3179 16.5443 17.1902 16.6532 17.0805 16.779C16.953 16.9275 16.8203 17.1017 16.8123 17.3055C16.7988 17.6467 17.068 18.0025 17.3988 18.0785C17.4076 18.0846 17.4169 18.09 17.4265 18.0947C17.567 18.1619 17.7236 18.1879 17.8783 18.1697C17.9053 18.1737 17.9325 18.1775 17.9598 18.1805C18.0914 18.1936 18.2242 18.1872 18.354 18.1615C18.479 18.1387 18.6183 18.0997 18.709 18.0077C18.8318 17.8827 18.811 17.7297 18.79 17.5727C18.7152 17.0171 18.6225 16.4641 18.512 15.9137C18.4985 15.8577 18.4649 15.8086 18.4175 15.7757C18.4217 15.7386 18.417 15.701 18.404 15.666C18.391 15.6309 18.3699 15.5994 18.3425 15.574C18.17 15.424 17.9655 15.2875 17.7245 15.349C17.4433 15.42 17.3285 15.6957 17.45 15.95Z" fill="white"/>
  <path d="M17.6982 16.252C17.5467 16.0812 17.3702 15.8668 17.426 15.621C17.4777 15.3938 17.7245 15.3297 17.926 15.3825C18.0682 15.4195 18.194 15.4992 18.3172 15.5767C18.3672 15.609 18.4155 15.5268 18.3645 15.4958C18.141 15.3553 17.8755 15.2035 17.6042 15.3C17.5461 15.3196 17.4932 15.3518 17.4492 15.3945C17.4052 15.4371 17.3713 15.4891 17.35 15.5465C17.3091 15.6697 17.3136 15.8033 17.3625 15.9235C17.421 16.0735 17.5252 16.1985 17.6315 16.3185C17.6715 16.3635 17.7377 16.297 17.6977 16.252H17.6982Z" fill="black"/>
  <path d="M17.6307 16.277C17.3237 16.4297 17.0227 16.6465 16.878 16.968C16.8037 17.126 16.776 17.3019 16.7982 17.475C16.8239 17.6366 16.8992 17.7861 17.0137 17.903C17.2637 18.1652 17.6365 18.2472 17.987 18.2332C18.3428 18.2181 18.6904 18.122 19.0035 17.9522C19.3073 17.7875 19.5705 17.5568 19.7737 17.2772C19.9805 16.9928 20.1208 16.6656 20.1842 16.3197C20.246 15.9627 20.2557 15.5986 20.213 15.2387C20.177 14.9065 20.1032 14.5794 19.9932 14.2637C19.8832 13.948 19.7383 13.6456 19.5612 13.362C19.3835 13.0772 19.1733 12.814 18.9347 12.5777C18.877 12.5205 18.8172 12.4652 18.7562 12.4117C18.7112 12.372 18.6445 12.4367 18.69 12.478C19.1749 12.9078 19.5568 13.4414 19.8072 14.0391C20.0577 14.6367 20.1703 15.2831 20.1367 15.9302C20.1155 16.2852 20.0367 16.6332 19.8687 16.9487C19.7168 17.2377 19.5034 17.4899 19.2437 17.6877C18.9713 17.8925 18.6563 18.0334 18.322 18.1C17.9892 18.1665 17.609 18.1725 17.303 18.0065C17.1693 17.9358 17.0571 17.8306 16.978 17.7017C16.8989 17.5666 16.8682 17.4085 16.891 17.2535C16.9377 16.9147 17.1825 16.6535 17.4615 16.4785C17.532 16.4345 17.6047 16.3941 17.6792 16.3575C17.7332 16.3305 17.6857 16.2497 17.632 16.2765L17.6307 16.277Z" fill="black"/>
  <path d="M11.5045 16.0935C11.403 15.9942 11.308 15.8886 11.22 15.7772C11.2729 15.7511 11.3198 15.7143 11.3578 15.6691C11.3957 15.6238 11.4238 15.5712 11.4402 15.5145C11.4577 15.4657 11.4583 15.4124 11.4419 15.3632C11.4256 15.314 11.3932 15.2716 11.35 15.243C11.2947 15.1457 11.2 15.1237 11.116 15.0472C10.9392 14.8847 10.5765 15.0415 10.6772 15.3027C10.6795 15.3107 10.6815 15.3172 10.683 15.3225C10.6845 15.3277 10.6807 15.334 10.6795 15.3417C10.6692 15.3667 10.6602 15.3917 10.6507 15.418C10.616 15.4997 10.599 15.5878 10.6007 15.6765C10.6097 15.8515 10.7135 15.9822 10.8192 16.112C10.8252 16.1195 10.8317 16.127 10.8377 16.1347C10.8065 16.1499 10.7791 16.1721 10.7577 16.1994C10.7363 16.2268 10.7214 16.2587 10.7142 16.2927C10.6923 16.406 10.6964 16.5228 10.7262 16.6342C10.7512 16.727 10.8012 16.8115 10.8262 16.9042C10.8807 17.0962 10.7942 17.2982 10.9115 17.4822C11.0417 17.6862 11.3277 17.6822 11.5312 17.6057C11.626 17.5727 11.7105 17.5152 11.7761 17.4392C11.8417 17.3631 11.8862 17.2712 11.905 17.1725C11.9867 16.7535 11.7965 16.379 11.5045 16.0935Z" fill="white"/>
  <path d="M10.8221 14.937C10.5428 15.2074 10.3504 15.555 10.2696 15.9352C10.1873 16.3172 10.2148 16.728 10.3776 17.0852C10.4575 17.2674 10.5823 17.4264 10.7403 17.5472C10.899 17.6648 11.093 17.7249 11.2903 17.7177C11.3867 17.7146 11.4814 17.6912 11.5682 17.6491C11.6549 17.6069 11.7318 17.5469 11.7938 17.473C11.9177 17.3196 11.9833 17.1274 11.9793 16.9302C11.9723 16.4822 11.6648 16.118 11.3293 15.8552C11.2863 15.8215 11.2431 15.7887 11.1991 15.7552C11.1883 15.749 11.1755 15.7474 11.1635 15.7505C11.1514 15.7537 11.1411 15.7615 11.1348 15.7722C11.1289 15.783 11.1273 15.7957 11.1304 15.8076C11.1335 15.8195 11.1411 15.8298 11.1516 15.8362C11.4753 16.0727 11.7926 16.3737 11.8701 16.7847C11.9368 17.1385 11.7576 17.5402 11.3801 17.6132C11.2017 17.6436 11.0183 17.6092 10.8631 17.5162C10.7043 17.4235 10.5831 17.2777 10.4971 17.1162C10.3273 16.7982 10.2838 16.4147 10.3401 16.0615C10.3964 15.704 10.5543 15.3702 10.7951 15.1C10.8251 15.0667 10.8562 15.0348 10.8883 15.0045C10.9321 14.9627 10.8656 14.8965 10.8221 14.9382V14.937Z" fill="black"/>
  <path d="M11.1644 15.8058C11.3334 15.8078 11.4644 15.6558 11.4771 15.4943C11.4916 15.3078 11.3659 15.1443 11.2196 15.0428C11.127 14.9831 11.0281 14.9339 10.9246 14.896C10.9126 14.8928 10.8998 14.8944 10.889 14.9005C10.8782 14.9067 10.8703 14.9168 10.8669 14.9288C10.8639 14.9407 10.8657 14.9533 10.8718 14.964C10.8779 14.9748 10.8878 14.9827 10.8996 14.9863C11.0789 15.0588 11.2811 15.152 11.3586 15.3435C11.3764 15.3827 11.3851 15.4253 11.3841 15.4683C11.3831 15.5113 11.3724 15.5535 11.3529 15.5918C11.3353 15.6269 11.3084 15.6567 11.2752 15.6779C11.242 15.6991 11.2037 15.7108 11.1644 15.712C11.1039 15.712 11.1039 15.805 11.1644 15.8058V15.8058Z" fill="black"/>
</svg>
